<svg width="74" height="74" viewBox="0 0 74 74" fill="none" xmlns="http://www.w3.org/2000/svg">
<path d="M55.5008 55.5C56.7275 55.5 57.9039 55.0127 58.7712 54.1454C59.6386 53.278 60.1258 52.1016 60.1258 50.875V39.5807C60.1258 38.3541 59.6386 37.1777 58.7712 36.3104C57.9039 35.443 56.7275 34.9558 55.5008 34.9558H49.0813C49.0813 33.3308 49.1769 31.7059 49.3681 30.081C49.6548 28.3605 50.1328 26.8312 50.8018 25.493C51.4709 24.1548 52.3327 23.1019 53.3872 22.3341C54.4356 21.4739 55.7737 21.0438 57.4017 21.0438V13.875C54.7254 13.875 52.382 14.4485 50.3717 15.5955C48.3753 16.728 46.66 18.2963 45.3536 20.1835C44.0383 22.2608 43.0698 24.5383 42.4861 26.9268C41.8959 29.5618 41.6073 32.2555 41.6258 34.9558V50.875C41.6258 52.1016 42.1131 53.278 42.9805 54.1454C43.8478 55.0127 45.0242 55.5 46.2508 55.5H55.5008ZM27.7508 55.5C28.9775 55.5 30.1539 55.0127 31.0212 54.1454C31.8886 53.278 32.3758 52.1016 32.3758 50.875V39.5807C32.3758 38.3541 31.8886 37.1777 31.0212 36.3104C30.1539 35.443 28.9775 34.9558 27.7508 34.9558H21.3313C21.3313 33.3308 21.4269 31.7059 21.6181 30.081C21.9079 28.3605 22.3858 26.8312 23.0518 25.493C23.7209 24.1548 24.5827 23.1019 25.6372 22.3341C26.6856 21.4739 28.0237 21.0438 29.6517 21.0438V13.875C26.9754 13.875 24.6321 14.4485 22.6217 15.5955C20.6253 16.728 18.91 18.2963 17.6036 20.1835C16.2883 22.2608 15.3198 24.5383 14.7361 26.9268C14.1459 29.5618 13.8573 32.2555 13.8758 34.9558V50.875C13.8758 52.1016 14.3631 53.278 15.2305 54.1454C16.0978 55.0127 17.2742 55.5 18.5008 55.5H27.7508Z" fill="#FF7D05"/>
</svg>
