<svg width="965" height="255" viewBox="0 0 965 255" fill="none" xmlns="http://www.w3.org/2000/svg">
<g filter="url(#filter0_d_854_136)">
<circle cx="482" cy="126" r="114" fill="#FCFCFF"/>
<circle cx="482" cy="126" r="110.58" stroke="url(#paint0_radial_854_136)" stroke-width="6.84"/>
</g>
<path fill-rule="evenodd" clip-rule="evenodd" d="M531.102 79.507C531.65 78.8807 532.069 78.1527 532.335 77.3645C532.602 76.5763 532.71 75.7434 532.655 74.9133C532.599 74.0832 532.38 73.2722 532.011 72.5265C531.642 71.7808 531.13 71.1152 530.504 70.5675C529.878 70.0198 529.15 69.6009 528.361 69.3345C527.573 69.0682 526.74 68.9597 525.91 69.0153C525.08 69.0709 524.269 69.2894 523.523 69.6584C522.778 70.0275 522.112 70.5397 521.564 71.166L489.201 108.153L461.733 71.5333C461.143 70.7468 460.378 70.1083 459.499 69.6686C458.62 69.2289 457.65 69 456.667 69H431.333C430.157 69 429.004 69.3275 428.004 69.9459C427.003 70.5642 426.195 71.449 425.669 72.501C425.143 73.553 424.92 74.7307 425.026 75.9021C425.131 77.0735 425.561 78.1924 426.267 79.1333L467.034 133.486L432.898 172.499C432.35 173.126 431.931 173.854 431.665 174.642C431.398 175.43 431.29 176.263 431.345 177.093C431.401 177.923 431.62 178.734 431.989 179.48C432.358 180.225 432.87 180.891 433.496 181.439C434.122 181.987 434.85 182.405 435.639 182.672C436.427 182.938 437.26 183.047 438.09 182.991C438.92 182.935 439.731 182.717 440.477 182.348C441.222 181.979 441.888 181.467 442.436 180.84L474.799 143.847L502.267 180.467C502.857 181.253 503.622 181.892 504.501 182.331C505.38 182.771 506.35 183 507.333 183H532.667C533.843 183 534.996 182.672 535.996 182.054C536.997 181.436 537.805 180.551 538.331 179.499C538.857 178.447 539.08 177.269 538.974 176.098C538.869 174.926 538.439 173.808 537.733 172.867L496.966 118.514L531.102 79.507ZM510.5 170.333L444 81.6667H453.5L520 170.333H510.5Z" fill="url(#paint1_radial_854_136)"/>
<g filter="url(#filter1_d_854_136)">
<circle cx="126" cy="129" r="114" fill="#FCFCFF"/>
<circle cx="126" cy="129" r="110.58" stroke="url(#paint2_radial_854_136)" stroke-width="6.84"/>
</g>
<path fill-rule="evenodd" clip-rule="evenodd" d="M63 121.444C63 94.8379 63 81.5312 71.2691 73.2691C79.5312 65 92.8379 65 119.444 65H133.556C160.162 65 173.469 65 181.731 73.2691C190 81.5312 190 94.8379 190 121.444V135.556C190 162.162 190 175.469 181.731 183.731C173.469 192 160.162 192 133.556 192H119.444C92.8379 192 79.5312 192 71.2691 183.731C63 175.469 63 162.162 63 135.556V121.444ZM168.833 96.75C168.833 99.5569 167.718 102.249 165.734 104.234C163.749 106.218 161.057 107.333 158.25 107.333C155.443 107.333 152.751 106.218 150.766 104.234C148.782 102.249 147.667 99.5569 147.667 96.75C147.667 93.9431 148.782 91.2512 150.766 89.2665C152.751 87.2817 155.443 86.1667 158.25 86.1667C161.057 86.1667 163.749 87.2817 165.734 89.2665C167.718 91.2512 168.833 93.9431 168.833 96.75ZM140.611 135.556C140.611 139.298 139.124 142.887 136.478 145.534C133.832 148.18 130.242 149.667 126.5 149.667C122.757 149.667 119.168 148.18 116.522 145.534C113.876 142.887 112.389 139.298 112.389 135.556C112.389 131.813 113.876 128.224 116.522 125.577C119.168 122.931 122.757 121.444 126.5 121.444C130.242 121.444 133.832 122.931 136.478 125.577C139.124 128.224 140.611 131.813 140.611 135.556ZM154.722 135.556C154.722 143.041 151.749 150.219 146.456 155.512C141.163 160.804 133.985 163.778 126.5 163.778C119.015 163.778 111.837 160.804 106.544 155.512C101.251 150.219 98.2778 143.041 98.2778 135.556C98.2778 128.071 101.251 120.892 106.544 115.599C111.837 110.307 119.015 107.333 126.5 107.333C133.985 107.333 141.163 110.307 146.456 115.599C151.749 120.892 154.722 128.071 154.722 135.556Z" fill="url(#paint3_radial_854_136)"/>
<g filter="url(#filter2_d_854_136)">
<circle cx="839" cy="126" r="114" fill="#FCFCFF"/>
<circle cx="839" cy="126" r="110.58" stroke="url(#paint4_radial_854_136)" stroke-width="6.84"/>
</g>
<path d="M903 125.659C903 90.5193 874.552 62 839.5 62C804.448 62 776 90.5193 776 125.659C776 156.47 797.844 182.125 826.8 188.045V144.757H814.1V125.659H826.8V109.744C826.8 97.4581 836.769 87.4637 849.025 87.4637H864.9V106.561H852.2C848.707 106.561 845.85 109.426 845.85 112.927V125.659H864.9V144.757H845.85V189C877.917 185.817 903 158.698 903 125.659Z" fill="url(#paint5_radial_854_136)"/>
<defs>
<filter id="filter0_d_854_136" x="356.6" y="0.6" width="250.8" height="250.8" filterUnits="userSpaceOnUse" color-interpolation-filters="sRGB">
<feFlood flood-opacity="0" result="BackgroundImageFix"/>
<feColorMatrix in="SourceAlpha" type="matrix" values="0 0 0 0 0 0 0 0 0 0 0 0 0 0 0 0 0 0 127 0" result="hardAlpha"/>
<feOffset/>
<feGaussianBlur stdDeviation="5.7"/>
<feComposite in2="hardAlpha" operator="out"/>
<feColorMatrix type="matrix" values="0 0 0 0 0 0 0 0 0 0 0 0 0 0 0 0 0 0 0.42 0"/>
<feBlend mode="normal" in2="BackgroundImageFix" result="effect1_dropShadow_854_136"/>
<feBlend mode="normal" in="SourceGraphic" in2="effect1_dropShadow_854_136" result="shape"/>
</filter>
<filter id="filter1_d_854_136" x="0.6" y="3.6" width="250.8" height="250.8" filterUnits="userSpaceOnUse" color-interpolation-filters="sRGB">
<feFlood flood-opacity="0" result="BackgroundImageFix"/>
<feColorMatrix in="SourceAlpha" type="matrix" values="0 0 0 0 0 0 0 0 0 0 0 0 0 0 0 0 0 0 127 0" result="hardAlpha"/>
<feOffset/>
<feGaussianBlur stdDeviation="5.7"/>
<feComposite in2="hardAlpha" operator="out"/>
<feColorMatrix type="matrix" values="0 0 0 0 0 0 0 0 0 0 0 0 0 0 0 0 0 0 0.42 0"/>
<feBlend mode="normal" in2="BackgroundImageFix" result="effect1_dropShadow_854_136"/>
<feBlend mode="normal" in="SourceGraphic" in2="effect1_dropShadow_854_136" result="shape"/>
</filter>
<filter id="filter2_d_854_136" x="713.6" y="0.6" width="250.8" height="250.8" filterUnits="userSpaceOnUse" color-interpolation-filters="sRGB">
<feFlood flood-opacity="0" result="BackgroundImageFix"/>
<feColorMatrix in="SourceAlpha" type="matrix" values="0 0 0 0 0 0 0 0 0 0 0 0 0 0 0 0 0 0 127 0" result="hardAlpha"/>
<feOffset/>
<feGaussianBlur stdDeviation="5.7"/>
<feComposite in2="hardAlpha" operator="out"/>
<feColorMatrix type="matrix" values="0 0 0 0 0 0 0 0 0 0 0 0 0 0 0 0 0 0 0.42 0"/>
<feBlend mode="normal" in2="BackgroundImageFix" result="effect1_dropShadow_854_136"/>
<feBlend mode="normal" in="SourceGraphic" in2="effect1_dropShadow_854_136" result="shape"/>
</filter>
<radialGradient id="paint0_radial_854_136" cx="0" cy="0" r="1" gradientUnits="userSpaceOnUse" gradientTransform="translate(473.509 126) rotate(-43.3201) scale(241.244 500.235)">
<stop stop-color="#FC7643"/>
<stop offset="0.397297" stop-color="#E6B7A5"/>
<stop offset="0.665" stop-color="#FC7643" stop-opacity="0.59"/>
</radialGradient>
<radialGradient id="paint1_radial_854_136" cx="0" cy="0" r="1" gradientUnits="userSpaceOnUse" gradientTransform="translate(477.755 126.003) rotate(-43.3214) scale(120.624 250.123)">
<stop stop-color="#FC7643"/>
<stop offset="0.397297" stop-color="#FFA27F"/>
<stop offset="0.665" stop-color="#F77D6E"/>
</radialGradient>
<radialGradient id="paint2_radial_854_136" cx="0" cy="0" r="1" gradientUnits="userSpaceOnUse" gradientTransform="translate(117.509 129) rotate(-43.3201) scale(241.244 500.235)">
<stop stop-color="#FC7643"/>
<stop offset="0.397297" stop-color="#E6B7A5"/>
<stop offset="0.665" stop-color="#FC7643" stop-opacity="0.59"/>
</radialGradient>
<radialGradient id="paint3_radial_854_136" cx="0" cy="0" r="1" gradientUnits="userSpaceOnUse" gradientTransform="translate(121.771 128.5) rotate(-43.3201) scale(134.377 278.64)">
<stop stop-color="#FC7643"/>
<stop offset="0.397297" stop-color="#FFA27F"/>
<stop offset="0.665" stop-color="#F77D6E"/>
</radialGradient>
<radialGradient id="paint4_radial_854_136" cx="0" cy="0" r="1" gradientUnits="userSpaceOnUse" gradientTransform="translate(830.509 126) rotate(-43.3201) scale(241.244 500.235)">
<stop stop-color="#FC7643"/>
<stop offset="0.397297" stop-color="#E6B7A5"/>
<stop offset="0.665" stop-color="#FC7643" stop-opacity="0.59"/>
</radialGradient>
<radialGradient id="paint5_radial_854_136" cx="0" cy="0" r="1" gradientUnits="userSpaceOnUse" gradientTransform="translate(834.771 125.5) rotate(-43.3201) scale(134.377 278.64)">
<stop stop-color="#FC7643"/>
<stop offset="0.397297" stop-color="#FFA27F"/>
<stop offset="0.665" stop-color="#F77D6E"/>
</radialGradient>
</defs>
</svg>
