<svg width="39" height="38" viewBox="0 0 39 38" fill="none" xmlns="http://www.w3.org/2000/svg">
<path d="M8.14933 5.03569C8.14879 6.11635 7.71897 7.15255 6.95444 7.91631C6.18992 8.68008 5.15329 9.10885 4.07263 9.10831C2.99196 9.10777 1.95577 8.67796 1.192 7.91343C0.428235 7.1489 -0.000539824 6.11228 5.10069e-07 5.03161C0.000540844 3.95094 0.430353 2.91475 1.19488 2.15099C1.95941 1.38722 2.99603 0.958445 4.0767 0.958985C5.15737 0.959525 6.19356 1.38934 6.95733 2.15387C7.72109 2.9184 8.14987 3.95502 8.14933 5.03569ZM8.27157 12.1256H0.12224V37.633H8.27157V12.1256ZM21.1475 12.1256H13.0389V37.633H21.066V24.2477C21.066 16.7911 30.7841 16.0984 30.7841 24.2477V37.633H38.8315V21.477C38.8315 8.90662 24.448 9.3752 21.066 15.5483L21.1475 12.1256Z" fill="#686868"/>
</svg>
