<svg width="25" height="25" viewBox="0 0 256 256" fill="none" xmlns="http://www.w3.org/2000/svg">
<path d="M208 32H48C43.7565 32 39.6869 33.6857 36.6863 36.6863C33.6857 39.6869 32 43.7565 32 48V208C32 212.243 33.6857 216.313 36.6863 219.314C39.6869 222.314 43.7565 224 48 224H208C212.243 224 216.313 222.314 219.314 219.314C222.314 216.313 224 212.243 224 208V48C224 43.7565 222.314 39.6869 219.314 36.6863C216.313 33.6857 212.243 32 208 32ZM184 136H72C69.8783 136 67.8434 135.157 66.3431 133.657C64.8429 132.157 64 130.122 64 128C64 125.878 64.8429 123.843 66.3431 122.343C67.8434 120.843 69.8783 120 72 120H184C186.122 120 188.157 120.843 189.657 122.343C191.157 123.843 192 125.878 192 128C192 130.122 191.157 132.157 189.657 133.657C188.157 135.157 186.122 136 184 136Z" fill="#FFE9E2"/>
</svg>
