<svg width="192" height="192" viewBox="0 0 192 192" fill="none" xmlns="http://www.w3.org/2000/svg">
<path d="M176 0H16C11.7565 0 7.68687 1.68571 4.68629 4.68629C1.68571 7.68687 0 11.7565 0 16V176C0 180.243 1.68571 184.313 4.68629 187.314C7.68687 190.314 11.7565 192 16 192H176C180.243 192 184.313 190.314 187.314 187.314C190.314 184.313 192 180.243 192 176V16C192 11.7565 190.314 7.68687 187.314 4.68629C184.313 1.68571 180.243 0 176 0ZM152 104H104V152C104 154.122 103.157 156.157 101.657 157.657C100.157 159.157 98.1217 160 96 160C93.8783 160 91.8434 159.157 90.3431 157.657C88.8429 156.157 88 154.122 88 152V104H40C37.8783 104 35.8434 103.157 34.3431 101.657C32.8429 100.157 32 98.1217 32 96C32 93.8783 32.8429 91.8434 34.3431 90.3431C35.8434 88.8429 37.8783 88 40 88H88V40C88 37.8783 88.8429 35.8434 90.3431 34.3431C91.8434 32.8429 93.8783 32 96 32C98.1217 32 100.157 32.8429 101.657 34.3431C103.157 35.8434 104 37.8783 104 40V88H152C154.122 88 156.157 88.8429 157.657 90.3431C159.157 91.8434 160 93.8783 160 96C160 98.1217 159.157 100.157 157.657 101.657C156.157 103.157 154.122 104 152 104Z" fill="#FFE9E2"/>
</svg>
