<svg width="367" height="103" viewBox="0 0 367 103" fill="none" xmlns="http://www.w3.org/2000/svg">
<path d="M0.882537 98.0793L5.28275 72.4545C14.7734 74.7841 23.3581 75.9488 31.0369 75.9488C34.9194 75.9488 38.3275 75.9057 41.2609 75.8194C44.2807 75.6468 46.9553 75.388 49.2848 75.0429V67.2778L35.3077 66.1131C29.0094 65.5091 23.7464 64.4738 19.5187 63.007C15.2911 61.5403 11.8831 59.5559 9.2947 57.0538C6.79262 54.4654 4.98077 51.4026 3.85915 47.8651C2.82381 44.2414 2.30613 40.0138 2.30613 35.1822C2.30613 28.5387 2.99636 23.0169 4.37682 18.6167C5.75728 14.1302 7.95738 10.5496 10.9771 7.875C13.9969 5.11408 17.8794 3.17281 22.6247 2.05119C27.4563 0.929574 33.3233 0.368765 40.2256 0.368765C53.9439 0.368765 66.368 1.66294 77.4979 4.2513L73.6154 29.0995C63.9522 27.5465 56.2303 26.77 50.4496 26.77C44.6689 26.77 39.7511 27.0289 35.696 27.5465V35.1822L46.8259 36.2175C53.6419 36.9078 59.3363 38.0725 63.9091 39.7118C68.4818 41.2648 72.1487 43.3355 74.9096 45.9239C77.7568 48.5122 79.7412 51.5751 80.8628 55.1125C82.0707 58.65 82.6747 62.7051 82.6747 67.2778C82.6747 73.835 81.8119 79.3568 80.0863 83.8433C78.3607 88.3298 76.29 91.7378 73.8742 94.0673C71.8898 95.9655 69.4309 97.4753 66.4974 98.597C63.5639 99.6323 60.4579 100.409 57.1793 100.926C53.9007 101.444 50.579 101.746 47.2141 101.832C43.9356 102.005 40.959 102.091 38.2843 102.091C31.5546 102.091 25.0837 101.746 18.8716 101.056C12.6596 100.366 6.6632 99.3735 0.882537 98.0793ZM91.2658 60.9363C91.2658 47.0455 94.5012 36.7352 100.972 30.0055C107.443 23.1895 117.926 19.7814 132.421 19.7814C146.915 19.7814 157.398 23.1895 163.869 30.0055C170.34 36.7352 173.576 47.0455 173.576 60.9363C173.576 74.8272 170.34 85.1806 163.869 91.9966C157.398 98.7264 146.915 102.091 132.421 102.091C118.271 102.091 107.874 98.7695 101.231 92.1261C94.5875 85.4826 91.2658 75.086 91.2658 60.9363ZM124.656 49.0299V79.4431H129.444C133.24 79.4431 135.958 79.0549 137.597 78.2783C139.323 77.5018 140.186 75.69 140.186 72.8428V42.4296H135.397C131.601 42.4296 128.84 42.8178 127.115 43.5943C125.475 44.3709 124.656 46.1827 124.656 49.0299ZM271.417 99.7617H240.356V65.466H217.061V99.7617H186.001V2.69828H217.061V36.994H240.356V2.69828H271.417V99.7617ZM283.876 60.9363C283.876 47.0455 287.111 36.7352 293.582 30.0055C300.053 23.1895 310.536 19.7814 325.031 19.7814C339.526 19.7814 350.009 23.1895 356.479 30.0055C362.95 36.7352 366.186 47.0455 366.186 60.9363C366.186 74.8272 362.95 85.1806 356.479 91.9966C350.009 98.7264 339.526 102.091 325.031 102.091C310.881 102.091 300.485 98.7695 293.841 92.1261C287.198 85.4826 283.876 75.086 283.876 60.9363ZM317.266 49.0299V79.4431H322.054C325.851 79.4431 328.568 79.0549 330.208 78.2783C331.933 77.5018 332.796 75.69 332.796 72.8428V42.4296H328.008C324.211 42.4296 321.45 42.8178 319.725 43.5943C318.085 44.3709 317.266 46.1827 317.266 49.0299Z" fill="#D0A37A"/>
</svg>
