<svg width="695" height="806" viewBox="0 0 695 806" fill="none" xmlns="http://www.w3.org/2000/svg">
<path d="M324.387 463.241H377.024V523.398H362.736V502.644C354.515 517.683 341.381 525.203 323.334 525.203C307.693 525.203 294.609 520.089 284.082 509.863C273.655 499.536 268.441 486.753 268.441 471.513C268.441 456.273 273.655 443.54 284.082 433.313C294.609 422.986 307.693 417.823 323.334 417.823C335.766 417.823 346.695 421.132 356.119 427.749C365.644 434.366 371.81 442.888 374.617 453.315H352.811C349.803 449.506 345.692 446.498 340.479 444.292C335.365 442.086 329.65 440.983 323.334 440.983C313.208 440.983 304.685 443.891 297.767 449.706C290.95 455.521 287.541 462.79 287.541 471.513C287.541 480.236 290.95 487.504 297.767 493.32C304.685 499.135 313.208 502.042 323.334 502.042C331.154 502.042 338.072 500.488 344.088 497.38C350.104 494.272 354.415 490.111 357.022 484.898H324.387V463.241ZM446.608 446.698H463.903V523.398H446.608V507.908C440.793 519.438 431.92 525.203 419.989 525.203C411.667 525.203 404.899 522.596 399.686 517.382C394.572 512.068 392.016 505.1 392.016 496.478V446.698H409.16V489.861C409.16 493.871 410.815 497.13 414.123 499.636C417.432 502.042 421.844 503.245 427.358 503.245C433.073 503.245 437.685 501.992 441.194 499.486C444.803 496.979 446.608 493.671 446.608 489.56V446.698ZM489.915 436.622C486.005 436.622 482.696 435.469 479.989 433.163C477.382 430.757 476.079 427.849 476.079 424.44C476.079 421.031 477.382 418.174 479.989 415.868C482.696 413.562 486.005 412.409 489.915 412.409C493.925 412.409 497.234 413.562 499.841 415.868C502.548 418.174 503.901 421.031 503.901 424.44C503.901 427.949 502.548 430.857 499.841 433.163C497.234 435.469 493.925 436.622 489.915 436.622ZM481.343 523.398V446.698H498.487V523.398H481.343ZM576.908 415.116H594.053V523.398H576.908V508.058C570.692 519.488 561.368 525.203 548.935 525.203C538.408 525.203 529.585 521.393 522.466 513.773C515.448 506.053 511.939 496.478 511.939 485.048C511.939 473.618 515.448 464.094 522.466 456.474C529.585 448.754 538.408 444.894 548.935 444.894C561.368 444.894 570.692 450.608 576.908 462.038V415.116ZM536.453 498.132C540.965 501.541 546.579 503.245 553.297 503.245C560.014 503.245 565.629 501.541 570.141 498.132C574.652 494.623 576.908 490.262 576.908 485.048C576.908 479.835 574.652 475.523 570.141 472.114C565.629 468.605 560.014 466.851 553.297 466.851C546.579 466.851 540.965 468.605 536.453 472.114C532.041 475.523 529.836 479.835 529.836 485.048C529.836 490.262 532.041 494.623 536.453 498.132ZM689.67 485.499C689.67 487.705 689.52 489.71 689.219 491.515H624.701C626.305 495.726 629.213 499.035 633.424 501.441C637.735 503.847 642.898 505.05 648.914 505.05C658.439 505.05 665.257 503.095 669.367 499.185H688.317C685.409 507.005 680.346 513.322 673.127 518.134C666.009 522.847 657.787 525.203 648.463 525.203C636.632 525.203 626.756 521.393 618.836 513.773C610.915 506.053 606.955 496.478 606.955 485.048C606.955 473.618 610.865 464.094 618.685 456.474C626.606 448.754 636.482 444.894 648.312 444.894C660.143 444.894 669.969 448.754 677.789 456.474C685.71 464.094 689.67 473.769 689.67 485.499ZM648.312 465.046C642.698 465.046 637.785 466.249 633.574 468.655C629.363 471.062 626.456 474.32 624.851 478.431H672.074C670.57 474.32 667.663 471.062 663.352 468.655C659.04 466.249 654.027 465.046 648.312 465.046Z" fill="#FFE974"/>
<path d="M89.0539 397.939C75.8057 397.939 64.7656 394.492 55.9335 387.599C47.1014 380.705 42.6853 372.143 42.6853 361.91H63.2038C63.2038 365.572 65.735 368.642 70.7973 371.119C75.8596 373.597 82.2144 374.835 89.8617 374.835C96.6473 374.835 102.356 373.866 106.987 371.927C111.619 369.881 113.935 367.242 113.935 364.011C113.935 362.072 113.073 360.348 111.35 358.841C109.626 357.333 106.987 356.04 103.433 354.963C99.9863 353.886 96.8089 353.078 93.9008 352.54C91.1003 352.001 87.3844 351.355 82.7529 350.601C71.6589 348.877 62.5037 345.215 55.2872 339.615C48.1785 334.014 44.6241 326.474 44.6241 316.996C44.6241 306.763 48.7709 298.47 57.0644 292.115C65.358 285.76 75.7519 282.583 88.2461 282.583C100.956 282.583 111.511 285.922 119.912 292.6C128.314 299.17 132.514 307.356 132.514 317.157H111.996C111.996 313.926 109.68 311.233 105.049 309.079C100.417 306.817 94.6009 305.686 87.5998 305.686C81.1373 305.686 75.8057 306.656 71.6051 308.594C67.4044 310.426 65.3041 312.795 65.3041 315.703C65.3041 321.52 74.9979 325.774 94.3854 328.467C106.341 330.298 116.035 333.906 123.467 339.291C130.899 344.677 134.615 352.216 134.615 361.91C134.615 372.573 130.252 381.244 121.528 387.922C112.804 394.6 101.979 397.939 89.0539 397.939ZM200.213 336.706H176.302V364.657C176.302 370.042 179.802 372.735 186.803 372.735H198.597V396H184.703C166.716 396 157.722 387.437 157.722 370.312V336.706H141.727V313.603H157.722V294.539L176.302 289.369V313.603H200.213V336.706ZM273.366 313.603H294.692L252.524 426.697H230.228L244.284 396H238.63L207.933 313.603H227.32L248.97 369.181H251.716L273.366 313.603ZM304.388 396V279.675H322.806V396H304.388ZM425.794 355.286C425.794 357.656 425.632 359.81 425.309 361.749H355.999C357.722 366.272 360.846 369.827 365.369 372.412C370.001 374.997 375.548 376.289 382.01 376.289C392.243 376.289 399.567 374.189 403.983 369.988H424.34C421.216 378.39 415.777 385.175 408.022 390.345C400.375 395.408 391.542 397.939 381.526 397.939C368.816 397.939 358.207 393.846 349.698 385.66C341.189 377.366 336.934 367.08 336.934 354.801C336.934 342.523 341.135 332.29 349.536 324.105C358.045 315.811 368.654 311.664 381.364 311.664C394.074 311.664 404.629 315.811 413.03 324.105C421.539 332.29 425.794 342.684 425.794 355.286ZM381.364 333.314C375.332 333.314 370.055 334.606 365.531 337.191C361.007 339.776 357.884 343.277 356.16 347.693H406.891C405.275 343.277 402.152 339.776 397.52 337.191C392.889 334.606 387.503 333.314 381.364 333.314Z" fill="#FFFCEB"/>
<rect width="234.794" height="242.69" transform="matrix(-1 0 0 1 684.794 82)" fill="#BFD6EC"/>
<rect width="234.794" height="242.69" transform="matrix(-1 0 0 1 234.794 492)" fill="#E55937"/>
<rect width="159.153" height="164.588" transform="matrix(-1 0 0 1 356.153 0)" fill="#FFE974"/>
<rect width="159.153" height="164.588" transform="matrix(-1 0 0 1 515.153 641)" fill="#FFFCEB"/>
</svg>
