<svg width="315" height="626" viewBox="0 0 315 626" fill="none" xmlns="http://www.w3.org/2000/svg">
<path d="M137.235 343.451H162.458V372.278H155.612V362.333C151.672 369.54 145.378 373.143 136.73 373.143C129.235 373.143 122.965 370.693 117.921 365.792C112.924 360.843 110.426 354.718 110.426 347.415C110.426 340.112 112.924 334.011 117.921 329.11C122.965 324.162 129.235 321.687 136.73 321.687C142.688 321.687 147.924 323.273 152.441 326.444C157.005 329.615 159.96 333.698 161.305 338.695H150.855C149.414 336.869 147.444 335.428 144.946 334.371C142.495 333.314 139.757 332.786 136.73 332.786C131.878 332.786 127.794 334.179 124.479 336.965C121.212 339.752 119.578 343.235 119.578 347.415C119.578 351.595 121.212 355.078 124.479 357.865C127.794 360.651 131.878 362.045 136.73 362.045C140.478 362.045 143.793 361.3 146.675 359.811C149.558 358.321 151.624 356.327 152.873 353.829H137.235V343.451ZM195.802 335.524H204.09V372.278H195.802V364.855C193.016 370.38 188.764 373.143 183.046 373.143C179.059 373.143 175.816 371.894 173.317 369.395C170.867 366.849 169.642 363.51 169.642 359.378V335.524H177.858V356.207C177.858 358.129 178.65 359.69 180.236 360.892C181.821 362.045 183.935 362.621 186.578 362.621C189.316 362.621 191.526 362.021 193.208 360.819C194.937 359.618 195.802 358.033 195.802 356.063V335.524ZM216.555 330.696C214.681 330.696 213.095 330.143 211.798 329.038C210.549 327.885 209.924 326.492 209.924 324.858C209.924 323.225 210.549 321.855 211.798 320.75C213.095 319.645 214.681 319.093 216.555 319.093C218.476 319.093 220.062 319.645 221.311 320.75C222.608 321.855 223.257 323.225 223.257 324.858C223.257 326.54 222.608 327.933 221.311 329.038C220.062 330.143 218.476 330.696 216.555 330.696ZM212.447 372.278V335.524H220.662V372.278H212.447ZM258.241 320.39H266.457V372.278H258.241V364.927C255.262 370.404 250.794 373.143 244.837 373.143C239.792 373.143 235.564 371.317 232.153 367.666C228.79 363.966 227.108 359.378 227.108 353.901C227.108 348.424 228.79 343.86 232.153 340.208C235.564 336.509 239.792 334.659 244.837 334.659C250.794 334.659 255.262 337.398 258.241 342.875V320.39ZM238.855 360.171C241.017 361.804 243.708 362.621 246.927 362.621C250.146 362.621 252.836 361.804 254.998 360.171C257.16 358.489 258.241 356.399 258.241 353.901C258.241 351.403 257.16 349.337 254.998 347.703C252.836 346.022 250.146 345.181 246.927 345.181C243.708 345.181 241.017 346.022 238.855 347.703C236.741 349.337 235.684 351.403 235.684 353.901C235.684 356.399 236.741 358.489 238.855 360.171ZM312.276 354.117C312.276 355.174 312.204 356.135 312.06 357H281.143C281.912 359.018 283.305 360.603 285.323 361.756C287.389 362.909 289.863 363.486 292.746 363.486C297.31 363.486 300.577 362.549 302.547 360.675H311.627C310.234 364.423 307.808 367.45 304.349 369.756C300.938 372.014 296.998 373.143 292.53 373.143C286.861 373.143 282.128 371.317 278.333 367.666C274.537 363.966 272.639 359.378 272.639 353.901C272.639 348.424 274.513 343.86 278.261 340.208C282.056 336.509 286.788 334.659 292.458 334.659C298.127 334.659 302.835 336.509 306.583 340.208C310.378 343.86 312.276 348.496 312.276 354.117ZM292.458 344.316C289.767 344.316 287.413 344.893 285.395 346.046C283.377 347.199 281.984 348.76 281.215 350.73H303.844C303.124 348.76 301.73 347.199 299.664 346.046C297.598 344.893 295.196 344.316 292.458 344.316Z" fill="#FFE974"/>
<path d="M24.4647 312.929C18.1163 312.929 12.8259 311.277 8.59361 307.974C4.36132 304.671 2.24518 300.568 2.24518 295.664H12.0775C12.0775 297.419 13.2904 298.89 15.7162 300.077C18.1421 301.264 21.1872 301.858 24.8518 301.858C28.1034 301.858 30.8389 301.393 33.0583 300.464C35.2777 299.484 36.3874 298.219 36.3874 296.671C36.3874 295.742 35.9744 294.916 35.1486 294.193C34.3228 293.471 33.0583 292.851 31.3551 292.335C29.7034 291.819 28.1808 291.432 26.7873 291.174C25.4453 290.916 23.6647 290.606 21.4453 290.245C16.1291 289.419 11.742 287.664 8.28393 284.98C4.87745 282.297 3.17422 278.684 3.17422 274.142C3.17422 269.238 5.16133 265.264 9.13555 262.219C13.1098 259.174 18.0904 257.651 24.0776 257.651C30.168 257.651 35.2261 259.251 39.2519 262.451C43.2777 265.6 45.2906 269.522 45.2906 274.219H35.4583C35.4583 272.671 34.3486 271.38 32.1293 270.348C29.9099 269.264 27.1228 268.722 23.7679 268.722C20.6711 268.722 18.1163 269.187 16.1033 270.116C14.0904 270.993 13.084 272.129 13.084 273.522C13.084 276.309 17.7292 278.348 27.0195 279.638C32.7486 280.516 37.3938 282.245 40.9551 284.826C44.5164 287.406 46.2971 291.019 46.2971 295.664C46.2971 300.774 44.2068 304.929 40.0261 308.129C35.8454 311.329 30.6583 312.929 24.4647 312.929ZM77.7314 283.587H66.2732V296.981C66.2732 299.561 67.9507 300.852 71.3055 300.852H76.9572V312H70.2991C61.6797 312 57.37 307.897 57.37 299.69V283.587H49.7054V272.516H57.37V263.38L66.2732 260.903V272.516H77.7314V283.587ZM112.786 272.516H123.005L102.799 326.71H92.1146L98.8501 312H96.1404L81.4306 272.516H90.721L101.095 299.148H102.411L112.786 272.516ZM127.651 312V256.258H136.477V312H127.651ZM185.828 292.49C185.828 293.626 185.751 294.658 185.596 295.587H152.383C153.209 297.755 154.706 299.458 156.873 300.697C159.093 301.935 161.751 302.555 164.848 302.555C169.751 302.555 173.26 301.548 175.377 299.535H185.132C183.635 303.561 181.028 306.813 177.312 309.29C173.648 311.716 169.415 312.929 164.615 312.929C158.525 312.929 153.441 310.968 149.364 307.045C145.286 303.071 143.247 298.142 143.247 292.258C143.247 286.374 145.26 281.471 149.286 277.548C153.364 273.574 158.447 271.587 164.538 271.587C170.628 271.587 175.686 273.574 179.712 277.548C183.79 281.471 185.828 286.451 185.828 292.49ZM164.538 281.961C161.647 281.961 159.118 282.58 156.951 283.819C154.783 285.058 153.286 286.735 152.46 288.851H176.77C175.996 286.735 174.499 285.058 172.28 283.819C170.06 282.58 167.48 281.961 164.538 281.961Z" fill="#FFFCEB"/>
<rect width="120.816" height="124.879" transform="matrix(-0.00756317 -0.999971 -0.999971 0.00756317 178.625 207.835)" fill="#BFD6EC"/>
<rect width="120.816" height="124.879" transform="matrix(-0.00756317 -0.999971 -0.999971 0.00756317 183.789 624.541)" fill="#E55937"/>
<rect width="112" height="115.824" transform="matrix(-0.00756317 -0.999971 -0.999971 0.00756317 250.099 112.291)" fill="#FFE974"/>
<rect width="112" height="115.824" transform="matrix(-0.00756317 -0.999971 -0.999971 0.00756317 255.263 528.996)" fill="#FFFCEB"/>
</svg>
