<svg width="343" height="137" viewBox="0 0 343 137" fill="none" xmlns="http://www.w3.org/2000/svg">
<path d="M51.5095 19.8898V14.41C51.5095 6.73824 51.3529 6.58167 49.8186 6.58167H49.161C48.9105 6.58167 48.9105 6.29985 49.161 6.29985C50.0064 6.29985 52.3236 6.39379 52.7307 6.39379C53.2004 6.39379 55.3923 6.29985 56.2691 6.29985C56.5196 6.29985 56.5196 6.58167 56.2691 6.58167H55.6115C54.0772 6.58167 53.9206 6.73824 53.9206 14.41V19.8898C53.9206 27.5616 54.0772 27.7182 55.6115 27.7182H56.2691C56.5196 27.7182 56.5196 28 56.2691 28C55.3923 28 53.2004 27.9061 52.7307 27.9061C52.3236 27.9061 50.0064 28 49.161 28C48.9105 28 48.9105 27.7182 49.161 27.7182H49.8186C51.3529 27.7182 51.5095 27.5616 51.5095 19.8898ZM72.6225 18.3868V24.9313C72.6225 27.6869 73.0296 27.7182 74.1255 27.7182C74.376 27.7182 74.376 28 74.1255 28C73.875 28 71.8397 27.9374 71.3387 27.9374C70.8689 27.9374 69.5851 28 68.677 28C68.4265 28 68.4265 27.7182 68.677 27.7182C69.9295 27.7182 70.3053 27.499 70.3053 24.7434L70.274 18.0737C70.274 14.1908 68.3639 12.9696 66.4851 12.9696C64.5123 12.9696 63.2285 13.8464 61.7568 15.8191V27.7182H63.3851C63.6356 27.7182 63.6356 28 63.3851 28C63.1346 28 61.5063 27.9374 61.0052 27.9374C60.5042 27.9374 58.9073 28 57.9992 28C57.7487 28 57.7487 27.7182 57.9992 27.7182C59.3456 27.7182 59.4083 27.3424 59.4083 24.2737V16.1949C59.4083 15.2868 58.6881 14.4726 57.9679 13.8151C57.8739 13.7211 57.8739 13.6585 57.9679 13.6272C58.5628 13.408 59.7214 12.8443 60.2537 12.312C60.285 12.2807 60.3477 12.2807 60.4416 12.3433C61.0366 12.9383 61.6315 14.1595 61.7255 15.4433C63.3224 13.314 65.1073 12.0302 67.5184 12.0302C70.3366 12.0302 72.6225 13.4706 72.6225 18.3868ZM75.9268 16.6959C75.9268 13.4706 79.0894 12.0302 81.7198 12.0302C84.2875 12.0302 85.1329 12.312 86.9491 12.5625C87.1057 12.5938 87.1683 12.6565 87.1683 12.813C87.1683 13.8151 87.0117 17.1969 87.0117 18.2929C87.0117 18.5434 86.7612 18.5434 86.7612 18.2929C86.7612 14.5039 85.4147 12.2807 81.7511 12.2807C79.1521 12.2807 77.4298 13.3767 77.4298 15.005C77.4298 17.103 79.8723 17.9797 82.3773 18.8252C85.0077 19.7646 87.7319 20.704 87.7319 23.4909C87.7319 26.2778 85.2582 28.3131 82.1268 28.3131C78.9016 28.3131 77.3359 27.5303 76.0834 27.1859C75.9268 27.1545 75.8642 27.0293 75.8642 26.7475C75.8642 26.2465 76.052 25.6202 76.052 21.1737C76.052 20.8919 76.3025 20.8919 76.3025 21.1737C76.3025 25.6515 77.6803 28.0313 82.1268 28.0313C85.1642 28.0313 86.1976 26.6222 86.1976 24.9C86.1976 22.708 83.7551 21.9252 81.2187 21.0798C78.5884 20.2656 75.9268 19.1696 75.9268 16.6959ZM93.2223 24.7434C94.4122 25.9333 96.1657 27.6242 98.4203 27.6242C101.802 27.6242 103.744 25.1505 103.744 20.5161C103.744 16.8524 101.802 13.0635 97.9193 13.0635C96.1657 13.0635 94.3496 14.0656 93.2536 15.6939C93.2536 18.3242 93.2223 21.0798 93.2223 24.7434ZM93.2536 12.1241V15.3181C94.7253 13.2827 97.0738 12.0302 99.4536 12.0302C103.023 12.0302 106.061 15.0676 106.061 19.3888C106.061 24.5242 101.614 28.3131 97.1051 28.3131C95.5081 28.3131 94.193 27.7808 93.2223 27.1545V36.2354H95.4455C95.696 36.2354 95.696 36.5172 95.4455 36.5172C95.2263 36.5172 92.6899 36.4546 92.2202 36.4546C91.7192 36.4546 89.5273 36.5172 88.6192 36.5172C88.3687 36.5172 88.3687 36.2354 88.6192 36.2354C90.7485 36.2354 90.9364 35.9849 90.9364 32.5717V16.0383C90.9364 13.3454 90.3101 13.6585 88.7445 13.909C88.494 13.9403 88.494 13.6585 88.7445 13.6272C90.3414 13.4706 91.6253 12.4686 92.6899 11.9049C92.7839 11.811 93.2536 11.9676 93.2536 12.1241ZM109.058 7.70895C109.058 6.80086 109.778 6.04934 110.686 6.04934C111.594 6.04934 112.345 6.80086 112.345 7.70895C112.345 8.61704 111.594 9.33725 110.686 9.33725C109.778 9.33725 109.058 8.61704 109.058 7.70895ZM109.621 24.5555V16.1949C109.621 13.8151 109.183 13.7524 107.617 14.0656C107.367 14.1595 107.273 13.909 107.523 13.8151C109.12 13.4706 110.216 12.8757 111.437 12.0302C111.531 11.9363 112.001 12.0928 112.001 12.2494V24.5555C112.001 27.2485 112.126 27.7182 113.88 27.7182C114.13 27.7182 114.13 28 113.88 28C112.972 28 111.375 27.9374 110.874 27.9374C110.404 27.9374 108.619 28 107.711 28C107.461 28 107.461 27.7182 107.711 27.7182C109.496 27.7182 109.621 27.2485 109.621 24.5555ZM121.069 12.5625C121.601 12.2181 122.196 12.0302 122.854 12.0302C123.605 12.0302 124.263 12.1868 124.263 12.5938C124.263 13.0948 123.793 14.2221 122.697 14.2221H121.539C119.284 14.2221 119.065 14.5666 119.065 17.2282V27.7182H120.975C121.225 27.7182 121.225 28 120.975 28C120.724 28 118.689 27.9374 118.188 27.9374C117.687 27.9374 115.902 28 114.994 28C114.744 28 114.744 27.7182 114.994 27.7182C116.497 27.7182 116.748 27.5303 116.748 24.2737V16.1949C116.748 15.2868 116.027 14.4726 115.307 13.8151C115.213 13.7211 115.213 13.6585 115.307 13.6272C115.902 13.408 116.936 12.8443 117.468 12.312C117.499 12.2807 117.562 12.2807 117.656 12.3433C118.188 12.8443 118.877 14.0029 119.002 15.2242C119.378 13.8464 120.223 13.1575 121.069 12.5625ZM135.54 16.8524C136.01 16.8524 136.699 16.6646 136.793 16.5706C136.981 16.3514 137.075 16.0383 137.075 15.5686C137.075 14.41 135.885 12.7191 133.474 12.7191C130.749 12.7191 128.683 14.1282 127.837 16.9777C131.376 16.9777 133.505 16.8524 135.54 16.8524ZM133.505 28.3131C128.714 28.3131 125.645 25.1505 125.645 20.7979C125.645 16.1009 129.998 12.0302 134.35 12.0302C138.891 12.0302 139.955 14.8171 139.799 16.2575C139.705 16.7898 139.454 17.2282 138.484 17.2282H127.775C127.618 18.011 127.524 18.7939 127.524 19.6393C127.524 23.4909 130.875 26.497 135.102 26.497C138.922 26.497 141.239 24.1485 142.962 20.4222C143.118 20.0464 143.337 20.1403 143.181 20.4848C141.521 24.3363 138.233 28.3131 133.505 28.3131ZM149.526 12.7191C146.144 12.7191 144.046 15.0676 144.046 19.702C144.046 23.3343 146.144 27.2798 150.027 27.2798C151.937 27.2798 153.753 26.0586 154.849 24.305V15.8191C153.659 14.6292 151.843 12.7191 149.526 12.7191ZM154.849 13.5019V6.67561C154.849 3.98266 154.348 4.01398 152.782 4.26448C152.532 4.2958 152.532 4.01398 152.782 3.98266C154.379 3.70084 155.475 3.1372 156.571 2.54225C156.665 2.44831 157.197 2.60488 157.197 2.76144V24.2737C157.197 27.3424 157.229 27.7182 158.794 27.7182C159.045 27.7182 159.045 28 158.794 28C156.884 28 156.039 28.0939 155.005 28.3131C154.755 28.3758 154.63 28.2818 154.63 28.0313C154.63 27.8121 154.818 26.5909 154.849 24.806C153.346 27.0293 150.903 28.3131 148.43 28.3131C144.86 28.3131 141.854 25.2757 141.854 20.9545C141.854 15.8191 146.332 12.0302 150.841 12.0302C152.5 12.0302 153.878 12.7504 154.849 13.5019ZM178.811 27.6242C182.193 27.6242 184.134 25.1505 184.134 20.5161C184.134 16.8524 182.193 13.0635 178.31 13.0635C176.556 13.0635 174.677 14.0969 173.581 15.7565V24.6808C174.677 25.9333 176.587 27.6242 178.811 27.6242ZM171.233 27.7495V6.67561C171.233 3.98266 170.794 4.2958 169.229 4.5463C168.978 4.57762 168.978 4.2958 169.229 4.26448C170.826 3.98266 171.922 3.1372 173.018 2.54225C173.112 2.44831 173.581 2.60488 173.581 2.76144V15.412C175.053 13.2827 177.433 12.0302 179.844 12.0302C183.414 12.0302 186.451 15.0676 186.451 19.3888C186.451 24.5242 182.005 28.3131 177.496 28.3131C175.272 28.3131 173.707 27.3111 172.736 26.4343C171.734 27.8121 171.546 28.0313 171.389 28.0313C171.295 28.0313 171.233 27.9374 171.233 27.7495ZM191.33 32.2586C192.895 32.2586 194.148 31.7889 195.557 28.5323L195.901 27.7495L190.923 16.7272C189.169 12.907 188.762 12.6251 187.259 12.6251C187.04 12.6251 187.04 12.3433 187.259 12.3433C187.509 12.3433 189.858 12.406 190.359 12.406C190.766 12.406 192.895 12.3433 193.709 12.3433C193.96 12.3433 193.96 12.6251 193.709 12.6251C191.831 12.6251 191.674 13.0322 192.927 15.7878L197.091 25.0252L200.598 17.1343C201.945 14.1282 201.162 12.6251 199.158 12.6251C198.908 12.6251 198.908 12.3433 199.158 12.3433C200.035 12.3433 201.694 12.406 202.101 12.406C202.602 12.406 204.638 12.3433 204.92 12.3433C205.139 12.3433 205.139 12.6251 204.92 12.6251C203.448 12.5938 202.227 14.3161 200.88 17.3221L195.87 28.595C194.273 32.2586 192.363 34.0122 189.326 34.0122C187.603 34.0122 186.727 33.3859 186.727 32.7909C186.727 32.2899 187.447 31.3505 188.449 31.3505C189.545 31.3505 190.171 32.2586 191.33 32.2586ZM4.37745 43.8822V46.8309C5.25902 46.8309 7.50854 46.8005 8.48131 46.8005C9.48447 46.7701 9.54527 46.7701 9.54527 46.8613C9.54527 47.0741 8.99809 47.6517 8.05572 48.5029C7.78213 48.5029 5.35021 48.4725 4.31665 48.4725V58.0177C4.31665 60.2369 4.98543 61.3616 6.29258 61.3616C7.50854 61.3616 8.6941 60.2673 9.39327 58.2001C9.48447 57.9569 9.91006 58.1393 9.78846 58.3825C8.81569 60.3585 7.08295 62.304 4.95503 62.304C2.8879 62.304 2.03673 61.0272 2.03673 58.1089V48.4725H0.364787C0.334388 48.4725 0.273591 48.4117 0.364787 48.3205L4.25585 43.8518C4.34705 43.7606 4.37745 43.791 4.37745 43.8822ZM13.5936 61.9392C13.1072 61.9392 11.5568 62 10.6753 62C10.4321 62 10.4321 61.7264 10.6753 61.7264C11.9824 61.7264 12.0432 61.3616 12.0432 58.3825V41.2983C12.0432 38.684 11.6176 38.684 10.0977 38.9272C9.85448 38.9576 9.85448 38.684 10.0977 38.6536C11.648 38.38 12.712 37.8632 13.7759 37.2857C13.8671 37.1945 14.3231 37.3465 14.3231 37.4985V49.7492C15.8735 47.6821 17.5758 46.4965 19.8861 46.4965C22.622 46.4965 24.8412 47.8949 24.8412 52.6675V60.4801C24.8412 61.6656 25.2363 61.7568 26.3003 61.7264C26.5435 61.7264 26.5435 62 26.3003 62C26.0571 62 24.0812 61.9392 23.5948 61.9392C23.1388 61.9392 21.8013 62 20.9197 62C20.6765 62 20.6765 61.7264 20.9197 61.7264C22.2877 61.7264 22.5308 61.6656 22.5308 58.4433V52.3635C22.5308 48.5941 20.7373 47.4085 18.883 47.4085C16.9678 47.4085 15.7519 48.1989 14.3231 50.114V61.7264H16.1775C16.4207 61.7264 16.4207 62 16.1775 62C15.9343 62 14.0799 61.9392 13.5936 61.9392ZM37.5059 51.178C37.9619 51.178 38.6306 50.9956 38.7218 50.9044C38.9042 50.6916 38.9954 50.3876 38.9954 49.9316C38.9954 48.8069 37.8403 47.1653 35.4996 47.1653C32.8548 47.1653 30.8485 48.5333 30.0277 51.2996C33.4628 51.2996 35.53 51.178 37.5059 51.178ZM35.53 62.304C30.8789 62.304 27.8998 59.2337 27.8998 55.0082C27.8998 50.4484 32.1253 46.4965 36.3507 46.4965C40.7586 46.4965 41.7921 49.202 41.6401 50.6004C41.5489 51.1172 41.3058 51.5428 40.3634 51.5428H29.9669C29.815 52.3027 29.7238 53.0627 29.7238 53.8835C29.7238 57.6226 32.9764 60.5409 37.0803 60.5409C40.789 60.5409 43.0385 58.2609 44.7104 54.6435C44.8624 54.2787 45.0752 54.3699 44.9232 54.7043C43.3121 58.4433 40.1202 62.304 35.53 62.304ZM60.2949 43.6694C62.4836 40.0216 68.4114 34.8841 76.1023 34.8841C77.4095 34.8841 78.899 34.9145 79.6286 35.0361C80.6014 35.1881 79.3246 37.1641 78.595 37.1641C76.6495 37.1641 73.8832 36.6473 70.9345 36.6473C67.9554 36.6473 66.2531 37.2553 62.362 43.8822C60.2037 47.4085 58.2582 50.9348 56.3126 54.4611C55.2183 56.4978 54.3367 58.1393 54.4279 59.2641C54.4583 59.7809 54.8231 60.2673 55.431 60.4801C56.4038 60.1457 57.9846 59.0209 59.1093 57.8961L59.2917 58.1089C58.167 59.2033 56.5254 60.7232 54.5799 61.9088C54.2455 62.0608 53.2423 62.0304 53.0903 61.8784C52.3608 61.3008 52.0568 60.0545 52.0568 59.4465C51.9656 58.2001 53.1207 55.981 54.1847 54.0963C56.4342 49.962 59.4133 45.0374 60.2949 43.6694ZM65.7586 60.632C66.7314 60.9056 68.0081 60.6624 69.2241 60.1761C70.8656 59.3553 73.6319 53.3971 73.3887 50.1444C73.2672 48.7157 72.72 47.8645 71.7776 47.5301C71.4432 47.4389 70.592 47.0437 69.3761 47.3781C67.3698 48.5941 63.6003 54.1875 63.9955 58.6257C64.3299 59.8113 64.9378 60.4193 65.7586 60.632ZM73.9663 55.9202C72.7504 58.0481 70.5312 59.8113 68.4033 60.9664C67.3394 61.544 66.3058 62.1824 65.1202 62.1824C63.6611 62.1824 62.2019 61.1184 61.7156 59.7809C61.3812 58.5649 61.0468 56.5282 63.2355 52.8803C64.3907 50.8132 66.853 48.5333 68.8897 47.3781C70.0753 46.7397 71.352 46.2837 72.4768 46.2837H72.5072C73.8751 46.2837 75.1823 47.3781 75.6383 48.7157C75.9727 49.7796 76.0031 52.4243 73.9663 55.9202ZM81.9377 60.632C82.9105 60.9056 84.1873 60.6624 85.4032 60.1761C87.0448 59.3553 89.8111 53.3971 89.5679 50.1444C89.4463 48.7157 88.8991 47.8645 87.9567 47.5301C87.6223 47.4389 86.7712 47.0437 85.5552 47.3781C83.5489 48.5941 79.7794 54.1875 80.1746 58.6257C80.509 59.8113 81.117 60.4193 81.9377 60.632ZM90.1455 55.9202C88.9295 58.0481 86.7104 59.8113 84.5824 60.9664C83.5185 61.544 82.4849 62.1824 81.2994 62.1824C79.8402 62.1824 78.3811 61.1184 77.8947 59.7809C77.5603 58.5649 77.2259 56.5282 79.4146 52.8803C80.5698 50.8132 83.0321 48.5333 85.0688 47.3781C86.2544 46.7397 87.5311 46.2837 88.6559 46.2837H88.6863C90.0543 46.2837 91.3614 47.3781 91.8174 48.7157C92.1518 49.7796 92.1822 52.4243 90.1455 55.9202ZM108.149 49.5972C108.24 48.8677 107.48 47.3173 106.568 47.2261C104.744 47.6213 100.306 51.3908 98.0561 54.3699L97.9041 54.6739C106.416 53.5491 108.057 51.2996 108.149 49.5972ZM93.9522 61.7568C93.2834 61.7568 91.6115 62.2128 92.2499 60.5105C93.8306 58.0785 100.306 46.1014 101.734 43.8214C103.923 40.1736 110.064 34.8841 117.724 34.8841C119.031 34.8841 120.521 34.9145 121.25 35.0361C122.223 35.1881 120.946 37.1641 120.217 37.1641C118.271 37.1641 115.505 36.6473 112.556 36.6473C109.608 36.6473 107.845 37.2249 103.953 43.8822C102.707 45.9798 100.792 49.506 98.7248 53.1843C102.646 48.9589 106.477 46.1014 108.209 46.1014C109.456 46.3445 110.854 48.4117 110.55 49.6884C110.307 50.7828 109.243 52.1203 108.179 52.6979C106.72 53.5795 104.835 53.8835 100.701 54.4611C101.552 54.5827 102.525 55.0082 103.102 55.829C103.771 56.741 103.923 58.9601 104.592 60.1153C104.744 60.3889 105.169 60.7232 105.747 60.7232C106.72 60.3889 108.544 58.9601 109.699 57.8049L109.881 58.0177C108.756 59.1121 107.085 60.6624 105.139 61.848C104.896 62 102.92 62.0304 102.525 61.392C101.552 59.9329 101.582 57.2882 100.701 56.0722C100.002 55.1906 99.272 54.7651 97.7825 54.8866C96.4449 57.3186 95.1378 59.6897 93.9522 61.7568ZM125.369 60.632C126.342 60.9056 127.619 60.6624 128.835 60.1761C130.476 59.3553 133.242 53.3971 132.999 50.1444C132.878 48.7157 132.33 47.8645 131.388 47.5301C131.054 47.4389 130.202 47.0437 128.987 47.3781C126.98 48.5941 123.211 54.1875 123.606 58.6257C123.94 59.8113 124.548 60.4193 125.369 60.632ZM133.577 55.9202C132.361 58.0481 130.142 59.8113 128.014 60.9664C126.95 61.544 125.916 62.1824 124.731 62.1824C123.272 62.1824 121.812 61.1184 121.326 59.7809C120.992 58.5649 120.657 56.5282 122.846 52.8803C124.001 50.8132 126.463 48.5333 128.5 47.3781C129.686 46.7397 130.962 46.2837 132.087 46.2837H132.118C133.486 46.2837 134.793 47.3781 135.249 48.7157C135.583 49.7796 135.613 52.4243 133.577 55.9202ZM127.504 64.5839C127.413 65.1615 127.504 66.0127 127.625 66.5902C127.869 67.6846 128.629 68.8702 129.723 68.8702C131.213 68.8702 132.033 68.5054 135.256 62.6992C136.715 60.0241 140.18 53.1539 142.764 48.2901H140.849C140.606 48.1989 140.606 48.0165 140.758 47.9253L143.95 46.1014C144.436 45.159 144.862 44.4598 145.196 43.943C148.631 38.4712 153.404 34.7321 158.511 34.7321C160.213 34.7321 162.189 34.9753 163.283 35.4313C163.861 35.6745 162.554 37.1945 161.733 37.1945C160.031 37.1945 158.237 36.0089 155.319 36.0089C152.613 36.0089 151.185 37.1641 147.354 43.8518L145.865 46.5573C147.81 46.5573 150.212 46.3749 150.455 46.4661C150.789 46.5573 149.3 48.3813 148.753 48.3813C148.601 48.3813 146.898 48.3509 144.922 48.3205C142.247 53.3971 139.876 58.1089 137.414 62.5168C134.678 67.5326 130.696 69.5085 128.507 69.5085C126.531 69.5085 125.437 68.5054 125.437 67.0766C125.437 65.8607 126.318 64.7967 127.504 64.5839ZM166.097 43.6694C168.286 40.0216 174.214 34.8841 181.905 34.8841C183.212 34.8841 184.702 34.9145 185.431 35.0361C186.404 35.1881 185.127 37.1641 184.398 37.1641C182.452 37.1641 179.686 36.6473 176.737 36.6473C173.758 36.6473 172.056 37.2553 168.165 43.8822C166.006 47.4085 164.061 50.9348 162.115 54.4611C161.021 56.4978 160.139 58.1393 160.23 59.2641C160.261 59.7809 160.626 60.2673 161.234 60.4801C162.206 60.1457 163.787 59.0209 164.912 57.8961L165.094 58.1089C163.97 59.2033 162.328 60.7232 160.382 61.9088C160.048 62.0608 159.045 62.0304 158.893 61.8784C158.163 61.3008 157.859 60.0545 157.859 59.4465C157.768 58.2001 158.923 55.981 159.987 54.0963C162.237 49.962 165.216 45.0374 166.097 43.6694ZM171.561 60.632C172.534 60.9056 173.811 60.6624 175.027 60.1761C176.668 59.3553 179.435 53.3971 179.191 50.1444C179.07 48.7157 178.523 47.8645 177.58 47.5301C177.246 47.4389 176.395 47.0437 175.179 47.3781C173.172 48.5941 169.403 54.1875 169.798 58.6257C170.132 59.8113 170.74 60.4193 171.561 60.632ZM179.769 55.9202C178.553 58.0481 176.334 59.8113 174.206 60.9664C173.142 61.544 172.108 62.1824 170.923 62.1824C169.464 62.1824 168.005 61.1184 167.518 59.7809C167.184 58.5649 166.849 56.5282 169.038 52.8803C170.193 50.8132 172.656 48.5333 174.692 47.3781C175.878 46.7397 177.155 46.2837 178.279 46.2837H178.31C179.678 46.2837 180.985 47.3781 181.441 48.7157C181.775 49.7796 181.806 52.4243 179.769 55.9202ZM188.926 60.6016H188.956C190.537 59.2945 193.364 56.7714 195.462 54.6739C197.407 52.7283 198.046 51.178 198.046 49.8404C198.046 48.9893 197.62 48.0469 196.89 47.8341C196.13 48.0469 194.732 48.8981 193.547 49.8708L193.425 49.7492C194.61 48.5637 196.769 47.1957 198.198 46.4661C199.018 46.071 200.234 47.4997 200.143 48.8069C200.052 50.4788 197.468 53.1539 195.674 54.8562C193.486 56.9538 190.78 59.4161 187.74 61.9392C187.528 62.152 187.284 62.152 187.072 62.152C186.737 62.152 185.612 61.7568 185.612 60.9968C186.19 58.2609 187.284 52.7587 187.284 50.7828C187.254 48.8373 186.555 48.0773 185.977 48.0469C185.4 48.1989 183.91 49.1108 182.937 49.9924L182.785 49.8708C183.849 48.8069 185.704 47.4085 187.132 46.6181C188.561 45.8582 189.534 47.2261 189.655 50.0532C189.747 51.482 188.835 56.5282 188.105 59.7809C188.135 60.0241 188.348 60.6016 188.926 60.6016ZM212.372 50.3572C213.101 48.4725 210.7 46.8613 208.876 47.4389C207.113 48.6245 203.951 52.9411 203.465 56.9234C209.484 53.3363 211.885 51.8468 212.372 50.3572ZM214.773 47.8037C215.107 49.7796 212.037 52.2723 203.434 57.2274C203.404 57.7137 203.404 58.1697 203.434 58.6257C203.769 59.8113 204.377 60.4193 205.197 60.632C206.17 60.9056 207.72 60.5409 208.845 60.0241C209.666 59.6897 211.612 58.1393 212.584 56.9538L212.858 57.1058C211.612 58.5953 209.757 59.9937 208.146 60.8752C207.082 61.4528 205.684 62.1824 204.225 62.1824C203.009 62.1824 201.641 61.1184 201.154 59.7809C200.82 58.5649 200.486 56.5282 202.674 52.8803C203.829 50.8132 206.261 48.6245 208.298 47.4693C209.484 46.8309 210.852 46.3749 212.068 46.3749C213.435 46.3749 214.621 46.8309 214.773 47.8037ZM226.998 57.9293C226.998 59.6202 228.752 60.9667 230.255 60.9667C231.977 60.9667 234.827 57.8353 235.077 56.802C235.108 56.3949 235.265 54.8919 235.265 52.2929V51.6353L232.697 52.7312C228.094 54.6414 226.998 55.6121 226.998 57.9293ZM228.689 62.3444C226.184 62.3444 224.806 60.7475 224.806 58.8374C224.806 56.7394 226.842 54.6727 232.635 52.4181L235.234 51.4161C235.077 47.5019 234.169 46.312 231.883 46.312C229.159 46.312 228.501 48.7858 227.844 49.7878C227.562 50.1949 227.28 50.3514 226.435 50.3514C225.683 50.3514 225.182 50.1009 225.182 49.6312C225.182 49.2555 225.495 48.6605 226.278 48.1595C227.499 47.3454 230.161 46.0302 232.384 46.0302C235.484 46.0302 237.676 47.6272 237.676 51.7292C237.676 53.8272 237.426 57.3343 237.426 58.5868C237.426 60.3717 237.645 61.2485 238.302 61.2485C238.835 61.2485 239.68 60.1838 239.993 59.5262C240.15 59.2757 240.526 59.5262 240.369 59.7768C239.899 60.497 237.895 62.3131 236.674 62.3131C235.453 62.3131 234.889 61.499 234.889 60.0899C234.889 59.2444 234.921 58.1798 235.014 57.5222C234.169 58.9626 230.881 62.3444 228.689 62.3444ZM255.389 52.3868V58.9313C255.389 61.6869 255.796 61.7182 256.892 61.7182C257.143 61.7182 257.143 62 256.892 62C256.642 62 254.606 61.9374 254.105 61.9374C253.636 61.9374 252.352 62 251.444 62C251.193 62 251.193 61.7182 251.444 61.7182C252.696 61.7182 253.072 61.499 253.072 58.7434L253.041 52.0737C253.041 48.1908 251.131 46.9696 249.252 46.9696C247.279 46.9696 245.995 47.8464 244.523 49.8191V61.7182H246.152C246.402 61.7182 246.402 62 246.152 62C245.901 62 244.273 61.9374 243.772 61.9374C243.271 61.9374 241.674 62 240.766 62C240.515 62 240.515 61.7182 240.766 61.7182C242.112 61.7182 242.175 61.3424 242.175 58.2737V50.1949C242.175 49.2868 241.455 48.4726 240.735 47.8151C240.641 47.7211 240.641 47.6585 240.735 47.6272C241.33 47.408 242.488 46.8443 243.02 46.312C243.052 46.2807 243.114 46.2807 243.208 46.3433C243.803 46.9383 244.398 48.1595 244.492 49.4433C246.089 47.314 247.874 46.0302 250.285 46.0302C253.103 46.0302 255.389 47.4706 255.389 52.3868ZM266.271 46.7191C262.889 46.7191 260.792 49.0676 260.792 53.702C260.792 57.3343 262.889 61.2798 266.772 61.2798C268.682 61.2798 270.499 60.0586 271.595 58.305V49.8191C270.405 48.6292 268.589 46.7191 266.271 46.7191ZM271.595 47.5019V40.6756C271.595 37.9827 271.094 38.014 269.528 38.2645C269.277 38.2958 269.277 38.014 269.528 37.9827C271.125 37.7008 272.221 37.1372 273.317 36.5422C273.411 36.4483 273.943 36.6049 273.943 36.7614V58.2737C273.943 61.3424 273.974 61.7182 275.54 61.7182C275.791 61.7182 275.791 62 275.54 62C273.63 62 272.785 62.0939 271.751 62.3131C271.501 62.3758 271.375 62.2818 271.375 62.0313C271.375 61.8121 271.563 60.5909 271.595 58.806C270.092 61.0293 267.649 62.3131 265.175 62.3131C261.606 62.3131 258.6 59.2757 258.6 54.9545C258.6 49.8191 263.077 46.0302 267.587 46.0302C269.246 46.0302 270.624 46.7504 271.595 47.5019Z" fill="black"/>
<path d="M28.9899 88.8291H28.8683C27.6219 86.3668 26.1324 85.3636 24.3388 85.8196C22.7885 86.7011 23.1533 88.3731 25.0076 92.3249C26.5883 95.76 26.6187 98.5871 24.2172 100.077C22.9101 100.897 21.6941 101.262 20.083 101.262C18.7758 101.293 17.4383 100.776 16.8303 99.7727C16.1615 98.6783 16.7695 96.672 18.5326 96.1856L18.6542 96.2768C18.563 97.5232 19.0798 98.7087 19.9614 99.4687C21.0253 100.411 22.2109 100.654 23.4876 100.137C25.342 99.2863 24.2172 97.0368 22.6669 93.1457C20.9645 89.0419 21.2989 86.8835 23.518 85.8804C24.5212 85.4244 25.6764 85.0292 26.9835 85.0596C28.4123 85.0596 29.5674 85.3332 30.0234 86.306C30.4186 87.1875 29.8106 88.2515 28.9899 88.8291ZM38.2147 96.216L38.4275 96.368C37.0292 97.584 34.0805 99.9855 32.3781 100.958C32.0438 101.171 31.1926 101.049 31.0406 100.928C30.311 100.35 30.007 99.0127 30.007 98.4047C29.9158 97.1584 30.7062 95.4256 31.7702 93.6017C33.1077 91.2914 34.4149 89.1939 35.6308 87.2483H35.2964C34.4757 87.2483 33.6853 87.2787 33.5333 87.2483C33.4117 87.2179 33.3205 87.0963 33.5637 86.9747C35.7524 85.7892 38.4275 84.1476 40.6163 82.4453C40.8291 82.2933 40.981 82.3541 40.8595 82.5669C40.3427 83.4181 39.7043 84.3604 38.8835 85.6676C41.4674 85.6676 43.0482 85.4548 43.2914 85.546C43.6258 85.6372 42.1362 87.3395 41.5586 87.3395C41.4066 87.3395 40.0995 87.3091 37.8804 87.2787C36.33 89.7106 35.0229 91.8082 33.8069 94.1185C32.7125 96.0944 32.3173 97.0672 32.4085 98.1919C32.4389 98.7695 32.6821 99.4079 33.2901 99.6207C34.1109 99.3775 36.8468 97.4016 38.2147 96.216ZM48.7625 89.9234C48.7625 92.4465 48.3369 97.3712 47.4249 99.6815L50.6168 96.368C54.0519 92.8113 56.2102 90.4098 56.3318 88.9507C56.3014 87.8867 55.663 87.3091 55.0854 87.0963C54.3559 87.3091 53.3831 87.9779 52.1367 89.0723L51.9544 88.8899C52.8359 88.0083 55.663 85.8196 56.9398 85.4244C57.5174 85.3332 58.6421 86.3668 58.3077 87.5219C57.2742 89.7714 54.1735 93.0545 50.8296 96.5504C48.3673 99.0735 45.9962 101.688 42.6219 104.728C39.9164 107.19 35.9645 109.713 31.4351 109.713C30.9183 109.713 30.4623 109.561 30.2495 109.196C30.0063 108.801 30.7967 107.798 31.4047 107.342H34.7789C38.3356 107.342 40.3116 106.46 42.4395 104.576C43.5034 103.633 43.8986 103.269 44.4154 102.691C46.0266 99.7119 46.4217 93.1153 46.4217 90.2882C46.4217 89.1027 46.3305 87.9475 45.8138 87.3091C45.601 87.0963 45.3274 86.9747 44.9322 87.0051C44.537 87.1571 43.0171 88.1299 42.0443 89.0115L41.8619 88.8291C42.9563 87.8259 44.7498 86.4275 46.209 85.6372C46.4217 85.5156 46.6649 85.4548 46.8777 85.4548C47.2121 85.4548 47.5769 85.6068 47.8201 85.8804C48.4585 86.5795 48.7625 87.9171 48.7625 89.9234ZM67.1902 82.6885C69.3789 79.0406 75.3067 73.9032 82.9976 73.9032C84.3048 73.9032 85.7943 73.9336 86.5239 74.0552C87.4967 74.2072 86.2199 76.1831 85.4903 76.1831C83.5448 76.1831 80.7785 75.6663 77.8298 75.6663C74.8507 75.6663 73.1484 76.2743 69.2573 82.9013C67.099 86.4275 65.1534 89.9538 63.2079 93.4801C62.1135 95.5168 61.232 97.1584 61.3232 98.2831C61.3536 98.7999 61.7183 99.2863 62.3263 99.4991C63.2991 99.1647 64.8798 98.0399 66.0046 96.9152L66.187 97.128C65.0622 98.2223 63.4207 99.7423 61.4752 100.928C61.1408 101.08 60.1376 101.049 59.9856 100.897C59.256 100.32 58.952 99.0735 58.952 98.4655C58.8608 97.2192 60.016 95.0001 61.08 93.1153C63.3295 88.9811 66.3086 84.0564 67.1902 82.6885ZM76.6362 83.2053L76.4538 83.0229C79.3721 80.0134 82.26 76.7607 83.7799 74.6024C84.2055 74.116 84.9655 74.6328 84.4791 75.1191C82.6551 77.1863 79.676 80.135 76.6362 83.2053ZM76.3322 87.9475C76.3322 89.1635 74.113 91.7778 73.0491 93.5105C71.8635 95.4256 70.4956 97.3104 70.5868 98.4351C70.6172 98.9519 71.2859 99.3471 71.8939 99.5599C72.8667 99.2255 74.417 98.0399 75.5418 96.9152L75.7242 97.128C74.5994 98.2223 72.9579 99.7423 71.0123 100.928C70.7084 101.08 69.5228 101.08 69.3404 100.897C68.5804 100.32 68.1245 99.2559 68.0941 98.6479C68.0029 97.4016 69.7356 94.8785 70.8604 93.0241C72.4411 90.3794 73.5051 89.1635 73.7483 88.1603C73.9002 87.5827 73.2923 86.9139 72.8363 86.8227C72.0763 87.0659 70.1916 88.4035 69.0668 89.3762L68.854 89.2243C69.918 88.1603 72.3499 86.3972 73.8699 85.4244C74.2042 85.2116 74.5386 85.1812 74.873 85.3332C75.5722 85.6372 76.3322 87.2179 76.3322 87.9475ZM88.5706 88.8291H88.449C87.2026 86.3668 85.7131 85.3636 83.9196 85.8196C82.3692 86.7011 82.734 88.3731 84.5883 92.3249C86.1691 95.76 86.1995 98.5871 83.798 100.077C82.4908 100.897 81.2748 101.262 79.6637 101.262C78.3565 101.293 77.019 100.776 76.411 99.7727C75.7422 98.6783 76.3502 96.672 78.1134 96.1856L78.235 96.2768C78.1438 97.5232 78.6605 98.7087 79.5421 99.4687C80.6061 100.411 81.7916 100.654 83.0684 100.137C84.9227 99.2863 83.798 97.0368 82.2476 93.1457C80.5453 89.0419 80.8797 86.8835 83.0988 85.8804C84.1019 85.4244 85.2571 85.0292 86.5643 85.0596C87.993 85.0596 89.1482 85.3332 89.6042 86.306C89.9993 87.1875 89.3914 88.2515 88.5706 88.8291ZM104.635 85.4244C106.55 85.85 106.459 88.0387 103.298 93.3585C102.173 95.2736 100.927 97.1584 101.018 98.2831C101.048 98.7999 101.291 99.2863 101.899 99.4991C102.872 99.1647 104.544 98.0399 105.669 96.9152L105.851 97.128C104.726 98.2223 102.994 99.7423 101.048 100.928C100.714 101.141 99.8322 101.019 99.6802 100.897C98.9506 100.32 98.5251 99.1039 98.5251 98.4959C98.4339 97.2496 100.227 94.7569 101.261 92.9025C103.784 88.5251 103.754 87.4307 102.994 86.7619C101.139 87.1571 96.0019 91.261 92.5973 96.2768C91.5333 97.8272 90.6213 99.7119 89.983 100.776C89.3142 100.776 87.6422 101.232 88.2806 99.5295C89.8614 97.0976 96.3363 85.1204 97.7651 82.8405C99.9538 79.1926 106.094 73.9032 113.755 73.9032C115.062 73.9032 116.552 73.9336 117.281 74.0552C118.254 74.2072 116.977 76.1831 116.248 76.1831C114.302 76.1831 111.536 75.6663 108.587 75.6663C105.638 75.6663 103.875 76.2439 99.9842 82.9013C98.2819 85.698 96.0323 89.893 93.4788 94.5137C97.1267 90.0754 102.629 85.7588 104.635 85.4244ZM121.413 97.7625C122.603 98.9524 124.356 100.643 126.611 100.643C129.993 100.643 131.934 98.1695 131.934 93.5352C131.934 89.8715 129.993 86.0826 126.11 86.0826C124.356 86.0826 122.54 87.0846 121.444 88.7129C121.444 91.3432 121.413 94.0988 121.413 97.7625ZM121.444 85.1432V88.3371C122.916 86.3018 125.264 85.0492 127.644 85.0492C131.214 85.0492 134.251 88.0866 134.251 92.4079C134.251 97.5433 129.805 101.332 125.296 101.332C123.699 101.332 122.383 100.8 121.413 100.174V109.254H123.636C123.886 109.254 123.886 109.536 123.636 109.536C123.417 109.536 120.88 109.474 120.411 109.474C119.91 109.474 117.718 109.536 116.81 109.536C116.559 109.536 116.559 109.254 116.81 109.254C118.939 109.254 119.127 109.004 119.127 105.591V89.0573C119.127 86.3644 118.501 86.6775 116.935 86.928C116.684 86.9594 116.684 86.6775 116.935 86.6462C118.532 86.4897 119.816 85.4876 120.88 84.924C120.974 84.83 121.444 84.9866 121.444 85.1432ZM138.657 96.9483C138.657 98.6392 140.411 99.9857 141.914 99.9857C143.636 99.9857 146.485 96.8544 146.736 95.821C146.767 95.414 146.924 93.9109 146.924 91.3119V90.6543L144.356 91.7503C139.753 93.6604 138.657 94.6311 138.657 96.9483ZM140.348 101.363C137.843 101.363 136.465 99.7665 136.465 97.8564C136.465 95.7584 138.5 93.6917 144.293 91.4372L146.892 90.4351C146.736 86.521 145.828 85.3311 143.542 85.3311C140.818 85.3311 140.16 87.8048 139.502 88.8068C139.221 89.2139 138.939 89.3705 138.093 89.3705C137.342 89.3705 136.841 89.12 136.841 88.6503C136.841 88.2745 137.154 87.6796 137.937 87.1785C139.158 86.3644 141.82 85.0492 144.043 85.0492C147.143 85.0492 149.335 86.6462 149.335 90.7483C149.335 92.8463 149.084 96.3534 149.084 97.6059C149.084 99.3907 149.304 100.268 149.961 100.268C150.493 100.268 151.339 99.2029 151.652 98.5453C151.809 98.2948 152.184 98.5453 152.028 98.7958C151.558 99.516 149.554 101.332 148.333 101.332C147.112 101.332 146.548 100.518 146.548 99.1089C146.548 98.2635 146.579 97.1988 146.673 96.5412C145.828 97.9816 142.54 101.363 140.348 101.363ZM158.813 95.7897C161.349 95.7897 162.758 94.0049 162.758 90.717C162.758 88.0553 161.412 85.425 158.938 85.425C156.276 85.425 154.93 87.0846 154.93 90.4351C154.93 93.4725 156.182 95.7897 158.813 95.7897ZM158.531 108.816H158.656C162.57 108.816 166.578 106.718 166.578 103.869C166.578 101.865 165.013 101.144 161.474 101.144H157.403C154.679 101.99 152.863 103.587 152.863 105.34C152.863 107.595 154.93 108.816 158.531 108.816ZM166.109 85.8634C165.169 85.8634 162.257 85.2997 160.002 85.2997V85.3624C163.259 85.8321 165.075 87.8674 165.075 90.717C165.075 94.0362 162.257 96.1028 158.468 96.1028H157.904C156.026 96.2594 154.209 96.7291 154.209 97.7938C154.209 99.015 155.619 99.1402 158.374 99.1402H162.57C166.14 99.1402 167.486 100.769 167.486 102.522C167.486 106.562 161.568 110.538 156.652 110.538C153.364 110.538 151.485 108.816 151.485 106.562C151.485 104.15 154.178 102.052 156.715 101.113C154.209 101.019 152.55 100.518 152.55 99.015C152.55 97.6059 154.491 96.3847 156.996 95.9776C154.335 95.5079 152.581 93.7857 152.581 90.7796C152.581 87.6169 155.462 85.1119 159.126 85.1119C162.194 85.1119 165.858 83.922 166.61 83.922C166.954 83.922 167.518 84.0159 167.518 84.3917C167.518 84.924 166.985 85.8634 166.109 85.8634ZM178.225 89.8715C178.695 89.8715 179.384 89.6836 179.478 89.5897C179.666 89.3705 179.76 89.0573 179.76 88.5876C179.76 87.4291 178.57 85.7381 176.159 85.7381C173.434 85.7381 171.368 87.1472 170.522 89.9967C174.061 89.9967 176.19 89.8715 178.225 89.8715ZM176.19 101.332C171.399 101.332 168.33 98.1695 168.33 93.817C168.33 89.12 172.683 85.0492 177.035 85.0492C181.576 85.0492 182.641 87.8361 182.484 89.2765C182.39 89.8089 182.139 90.2473 181.169 90.2473H170.46C170.303 91.0301 170.209 91.8129 170.209 92.6584C170.209 96.5099 173.56 99.516 177.787 99.516C181.607 99.516 183.924 97.1675 185.647 93.4412C185.803 93.0655 186.022 93.1594 185.866 93.5038C184.206 97.3554 180.918 101.332 176.19 101.332ZM184.633 89.7149C184.633 86.4897 187.795 85.0492 190.426 85.0492C192.993 85.0492 193.839 85.3311 195.655 85.5816C195.812 85.6129 195.874 85.6755 195.874 85.8321C195.874 86.8341 195.718 90.2159 195.718 91.3119C195.718 91.5624 195.467 91.5624 195.467 91.3119C195.467 87.523 194.121 85.2997 190.457 85.2997C187.858 85.2997 186.136 86.3957 186.136 88.024C186.136 90.122 188.578 90.9988 191.083 91.8442C193.714 92.7836 196.438 93.723 196.438 96.5099C196.438 99.2968 193.964 101.332 190.833 101.332C187.608 101.332 186.042 100.549 184.789 100.205C184.633 100.174 184.57 100.048 184.57 99.7665C184.57 99.2655 184.758 98.6392 184.758 94.1927C184.758 93.9109 185.009 93.9109 185.009 94.1927C185.009 98.6705 186.386 101.05 190.833 101.05C193.87 101.05 194.904 99.6413 194.904 97.919C194.904 95.7271 192.461 94.9443 189.925 94.0988C187.294 93.2846 184.633 92.1887 184.633 89.7149ZM216.414 100.988C219.764 100.988 221.549 98.1382 221.549 93.4725C221.549 89.5584 219.451 85.3624 216.007 85.3624C212.343 85.3624 210.715 88.3998 210.715 92.9715C210.715 96.8544 212.781 100.988 216.414 100.988ZM215.881 101.332C211.466 101.332 208.116 98.2322 208.116 93.5038C208.116 88.9947 211.529 85.0492 216.382 85.0492C220.798 85.0492 224.085 88.1493 224.085 92.9715C224.085 97.0109 220.641 101.332 215.881 101.332ZM232.98 85.3624H233.293C234.201 85.3624 234.389 85.3311 234.389 85.425C234.389 85.6442 233.575 86.3957 232.918 87.1159C232.041 87.1159 230.976 87.0846 229.88 87.0846V93.4099C229.88 94.7251 229.88 96.1028 229.911 97.5746C229.911 100.675 230.099 100.737 231.915 100.737C232.166 100.737 232.166 101.019 231.915 101.019C230.976 101.019 229.254 100.956 228.784 100.956C228.314 100.956 226.686 101.019 225.747 101.019C225.496 101.019 225.496 100.737 225.747 100.737C227.532 100.737 227.563 100.33 227.563 97.5746C227.532 95.6958 227.532 94.0049 227.532 92.5331V87.3977V87.0846H226.248C225.966 87.0846 225.809 87.022 225.809 86.8967L226.905 85.3937H227.72C228.722 80.5714 232.855 76.5633 236.299 76.5633C237.896 76.5633 239.493 76.9391 239.493 77.3775C239.493 77.9098 238.804 78.9744 237.802 78.9744C236.769 78.9744 235.172 78.3795 233.293 78.3795C231.164 78.3795 229.911 80.4775 229.88 85.3937C230.851 85.3937 231.853 85.3624 232.98 85.3624ZM256.167 98.013C256.23 98.013 256.293 97.9503 256.324 97.8564L260.958 85.7694C261.459 84.423 262.086 82.5129 262.086 81.1038C262.086 80.1957 261.428 79.5694 260.332 79.5694C260.082 79.5694 259.581 79.6947 259.455 79.6947C259.299 79.6947 259.236 79.632 259.236 79.5068C259.236 79.4128 259.267 79.3189 259.612 79.3189C260.176 79.3189 262.649 79.3815 263.182 79.3815C263.589 79.3815 264.998 79.3189 265.781 79.3189C266.031 79.3189 265.937 79.6007 265.718 79.6007H265.655C264.81 79.6007 264.058 80.227 263.401 81.4795C262.618 82.826 261.835 84.5795 261.303 85.926L255.541 101.019C255.51 101.082 255.416 101.113 255.322 101.113H255.009C254.852 101.113 254.79 101.082 254.758 101.019L248.777 85.8947C246.085 79.7573 245.991 79.6007 244.362 79.6007H244.112C243.955 79.6007 243.893 79.5694 243.893 79.4755C243.893 79.3815 243.955 79.3189 244.08 79.3189C244.989 79.3189 246.679 79.4128 247.18 79.4128C247.682 79.4128 250.061 79.3189 250.969 79.3189C251.22 79.3189 251.314 79.6007 251.063 79.6007H250.406C248.84 79.6007 248.746 80.1017 251.408 86.1139L256.011 97.8564C256.042 97.9503 256.105 98.013 256.167 98.013ZM275.218 100.988C278.568 100.988 280.353 98.1382 280.353 93.4725C280.353 89.5584 278.255 85.3624 274.811 85.3624C271.147 85.3624 269.519 88.3998 269.519 92.9715C269.519 96.8544 271.586 100.988 275.218 100.988ZM274.686 101.332C270.27 101.332 266.92 98.2322 266.92 93.5038C266.92 88.9947 270.333 85.0492 275.187 85.0492C279.602 85.0492 282.89 88.1493 282.89 92.9715C282.89 97.0109 279.445 101.332 274.686 101.332ZM291.252 95.7897C293.788 95.7897 295.198 94.0049 295.198 90.717C295.198 88.0553 293.851 85.425 291.377 85.425C288.716 85.425 287.369 87.0846 287.369 90.4351C287.369 93.4725 288.622 95.7897 291.252 95.7897ZM290.97 108.816H291.095C295.01 108.816 299.018 106.718 299.018 103.869C299.018 101.865 297.452 101.144 293.914 101.144H289.843C287.119 101.99 285.303 103.587 285.303 105.34C285.303 107.595 287.369 108.816 290.97 108.816ZM298.548 85.8634C297.609 85.8634 294.697 85.2997 292.442 85.2997V85.3624C295.699 85.8321 297.515 87.8674 297.515 90.717C297.515 94.0362 294.697 96.1028 290.908 96.1028H290.344C288.465 96.2594 286.649 96.7291 286.649 97.7938C286.649 99.015 288.058 99.1402 290.814 99.1402H295.01C298.579 99.1402 299.926 100.769 299.926 102.522C299.926 106.562 294.008 110.538 289.091 110.538C285.804 110.538 283.925 108.816 283.925 106.562C283.925 104.15 286.618 102.052 289.154 101.113C286.649 101.019 284.989 100.518 284.989 99.015C284.989 97.6059 286.931 96.3847 289.436 95.9776C286.774 95.5079 285.021 93.7857 285.021 90.7796C285.021 87.6169 287.902 85.1119 291.565 85.1119C294.634 85.1119 298.298 83.922 299.049 83.922C299.394 83.922 299.957 84.0159 299.957 84.3917C299.957 84.924 299.425 85.8634 298.548 85.8634ZM301.803 94.9756V89.2139C301.803 86.521 301.365 86.6149 299.799 86.8654C299.549 86.8967 299.549 86.6149 299.799 86.5836C301.396 86.3018 302.523 85.7694 303.619 85.1745C303.713 85.0806 304.183 85.2371 304.183 85.3937V95.2887C304.183 99.1716 305.999 100.393 307.878 100.393C309.851 100.393 311.135 99.5473 312.638 97.5433V89.2139C312.638 86.521 312.199 86.6149 310.634 86.8654C310.383 86.8967 310.383 86.6149 310.634 86.5836C312.231 86.3018 313.327 85.7694 314.422 85.1745C314.516 85.0806 314.986 85.2371 314.986 85.3937V97.2928C314.986 100.455 315.111 100.737 316.646 100.737C316.865 100.737 316.865 101.019 316.646 101.019C314.673 101.019 313.452 101.238 312.575 101.332C312.324 101.363 312.324 101.27 312.324 101.05C312.324 100.831 312.606 99.6726 312.638 97.919C311.041 100.048 309.224 101.332 306.845 101.332C303.995 101.332 301.803 99.8918 301.803 94.9756ZM328.156 89.8715C328.626 89.8715 329.315 89.6836 329.409 89.5897C329.597 89.3705 329.691 89.0573 329.691 88.5876C329.691 87.4291 328.501 85.7381 326.09 85.7381C323.365 85.7381 321.299 87.1472 320.453 89.9967C323.992 89.9967 326.121 89.8715 328.156 89.8715ZM326.121 101.332C321.33 101.332 318.261 98.1695 318.261 93.817C318.261 89.12 322.614 85.0492 326.966 85.0492C331.507 85.0492 332.572 87.8361 332.415 89.2765C332.321 89.8089 332.07 90.2473 331.1 90.2473H320.391C320.234 91.0301 320.14 91.8129 320.14 92.6584C320.14 96.5099 323.491 99.516 327.718 99.516C331.538 99.516 333.855 97.1675 335.578 93.4412C335.734 93.0655 335.953 93.1594 335.797 93.5038C334.137 97.3554 330.849 101.332 326.121 101.332ZM335.472 99.3281C335.472 98.3574 336.255 97.5119 337.288 97.5119C338.259 97.5119 339.104 98.3574 339.104 99.3281C339.104 100.361 338.259 101.144 337.288 101.144C336.255 101.144 335.472 100.361 335.472 99.3281Z" fill="black"/>
</svg>
