<svg width="1013" height="244" viewBox="0 0 1013 244" fill="none" xmlns="http://www.w3.org/2000/svg">
<g filter="url(#filter0_d_222_4406)">
<path d="M62.7734 24.7112V26.5736C78.7684 26.5736 79.8776 39.7749 79.8776 76.3934V158.915C79.8776 195.547 78.7684 208.735 62.7734 208.735V210.597H85.0814C105.527 210.597 118.728 214.308 140.283 214.308C179.887 214.308 202.003 192.754 202.003 160.6C202.003 132.335 178.764 114.121 150.321 114.121C132.477 114.121 119.468 125.46 111.662 125.46C109.43 125.46 106.266 124.899 106.266 120.626C106.266 100.002 190.295 103.713 190.295 55.1946C190.295 29.1755 166.316 21 140.105 21C123.74 21 100.693 24.7112 84.3419 24.7112H62.7734ZM95.6808 28.8057C106.458 25.4643 117.236 23.6019 129.328 23.6019C152.005 23.6019 174.3 32.5169 174.3 55.5644C174.3 93.1141 104.418 96.6472 104.418 120.996C104.418 125.46 107.567 127.322 110.923 127.322C121.892 127.322 134.531 116.175 150.143 116.175C173.382 116.175 186.022 139.592 186.022 161.9C186.022 192.754 164.262 211.707 129.697 211.707C115.935 211.707 107.02 209.858 95.6808 205.763V28.8057Z" fill="#EBE0C6"/>
<path d="M218.708 210.597H268.719V208.735C252.724 208.735 251.615 195.547 251.615 158.915V29.5452C262.954 25.4643 271.869 23.6019 285.631 23.6019C320.196 23.6019 341.956 42.5548 341.956 73.4217C341.956 95.716 326.892 118.585 303.653 118.585C286.371 118.585 277.826 107.986 266.857 107.986C263.502 107.986 260.352 109.848 260.352 114.313C260.352 126.953 280.058 127.692 298.08 154.834C327.454 198.889 332.658 210.597 341.203 210.597H369.646V208.735C348.461 208.735 331.165 175.65 316.485 152.794C301.435 129.363 262.201 126.761 262.201 114.683C262.201 110.41 265.364 109.848 267.596 109.848C275.402 109.848 287.302 121.749 304.776 121.749C337.122 121.749 357.937 98.7013 357.937 73.23C357.937 42.9245 335.821 21 296.217 21C274.662 21 261.461 24.7111 241.016 24.7111H218.708V26.5736C234.702 26.5736 235.812 39.7749 235.812 76.3934V158.915C235.812 195.547 234.702 208.735 218.708 208.735V210.597Z" fill="#EBE0C6"/>
<path d="M380.78 26.5734C396.775 26.5734 397.884 39.7746 397.884 76.3932V158.915C397.884 195.547 396.775 208.735 380.78 208.735V210.597H513.875V179.922H512.013C512.013 206.694 455.318 208.735 437.666 208.735H413.866V109.479C416.851 105.576 421.493 102.782 426.889 102.974C440.077 103.343 449.567 119.325 472.244 119.325C486.925 119.325 496.031 109.848 496.031 98.8792H494.169C494.169 105.384 487.486 109.479 480.42 109.479C464.055 109.479 453.839 97.948 435.434 97.948C426.889 97.948 419.453 101.111 413.866 106.507V26.5734H444.733C487.486 26.5734 512.013 36.6113 512.013 49.0594V49.8126H513.875V24.7109H380.78V26.5734Z" fill="#EBE0C6"/>
<path d="M525.007 178.073C525.007 197.396 537.277 214.308 558.845 214.308C595.834 214.308 617.58 181.593 617.58 136.429C617.58 127.514 617.21 120.078 616.471 114.121L639.518 174.91C646.571 193.685 647.502 208.735 621.291 208.735V210.597H682.272V208.735C670.933 208.735 664.976 198.519 656.801 178.073L597.313 21H595.464C583.755 51.8532 576.867 70.2583 565.528 100.18C563.679 105.014 564.597 110.04 569.801 110.04C580.4 110.04 585.974 90.5122 594.902 90.5122C597.313 90.5122 599.367 92.0048 599.367 95.538C599.367 114.874 525.007 132.335 525.007 178.073ZM540.81 174.54C540.81 128.623 601.407 120.818 601.407 95.9077C601.407 91.0736 598.805 88.6634 595.272 88.6634C585.426 88.6634 578.538 108.178 569.993 108.178C567.021 108.178 565.528 105.946 567.952 99.4408L589.329 42.5548L611.815 101.851C615.156 112.82 615.718 123.05 615.718 136.799C615.718 167.282 601.037 205.393 569.993 205.393C551.779 205.393 540.81 192.014 540.81 174.54Z" fill="#EBE0C6"/>
<path d="M687.817 24.7109V49.8126H689.68C689.68 49.2511 689.488 49.8126 689.488 49.0594C689.488 36.6113 712.919 26.5734 744.881 26.5734V158.915C744.881 195.547 743.772 208.735 727.791 208.735V210.597H776.296V208.735C760.315 208.735 760.685 195.547 760.685 158.915V26.5734C792.661 26.5734 816.078 36.6113 816.078 49.0594C816.078 49.8126 815.9 49.2511 815.9 49.8126H817.749V24.7109H687.817Z" fill="#EBE0C6"/>
<path d="M879.076 210.597V208.735C863.095 208.735 861.972 195.547 861.972 158.915V119.325C861.972 110.588 865.327 102.974 874.995 102.974C888.182 102.974 902.876 119.325 925.554 119.325C940.234 119.325 949.341 109.848 949.341 98.8792H947.479C947.479 105.384 940.796 109.479 933.73 109.479C917.365 109.479 901.945 97.948 883.54 97.948C872.379 97.948 864.204 103.905 861.972 108.917V76.3932C861.972 39.7746 863.095 26.5734 879.076 26.5734V24.7109H828.886V26.5734C844.881 26.5734 845.99 39.7746 845.99 76.3932V158.915C845.99 195.547 844.881 208.735 828.886 208.735V210.597H879.076ZM937.811 26.5734C953.805 26.5734 954.915 39.7746 954.915 76.3932V158.915C954.915 195.547 953.805 208.735 937.811 208.735V210.597H988V208.735C972.019 208.735 970.91 195.547 970.91 158.915V76.3932C970.91 39.7746 972.019 26.5734 988 26.5734V24.7109H937.811V26.5734Z" fill="#EBE0C6"/>
<mask id="mask0_222_4406" style="mask-type:luminance" maskUnits="userSpaceOnUse" x="25" y="24" width="22" height="187">
<path d="M25 24.5828H46.2649V210.44H25V24.5828Z" fill="white"/>
</mask>
<g mask="url(#mask0_222_4406)">
<mask id="mask1_222_4406" style="mask-type:luminance" maskUnits="userSpaceOnUse" x="22" y="24" width="27" height="187">
<path d="M44.6121 24.4209L48.8099 209.98L26.6045 210.717L22.4067 25.1577L44.6121 24.4209Z" fill="white"/>
</mask>
<g mask="url(#mask1_222_4406)">
<mask id="mask2_222_4406" style="mask-type:luminance" maskUnits="userSpaceOnUse" x="22" y="24" width="27" height="187">
<path d="M44.6135 24.4209L48.8113 209.98L26.606 210.717L22.4082 25.1577L44.6135 24.4209Z" fill="white"/>
</mask>
<g mask="url(#mask2_222_4406)">
<mask id="mask3_222_4406" style="mask-type:luminance" maskUnits="userSpaceOnUse" x="22" y="24" width="27" height="187">
<path d="M44.6135 24.4502L48.8143 210.085L26.609 210.822L22.4082 25.187L44.6135 24.4502Z" fill="white"/>
</mask>
<g mask="url(#mask3_222_4406)">
<mask id="mask4_222_4406" style="mask-type:luminance" maskUnits="userSpaceOnUse" x="22" y="24" width="27" height="187">
<path d="M44.615 24.4502L48.8128 209.956L26.6075 210.692L22.4097 25.187L44.615 24.4502Z" fill="white"/>
</mask>
<g mask="url(#mask4_222_4406)">
<path d="M33.5319 24.8167C33.5468 24.8454 33.5675 24.8634 33.5853 24.8849L33.6476 24.946L33.7663 25.0646C33.8464 25.1473 33.9265 25.23 34.0066 25.3126C34.1638 25.478 34.3211 25.6469 34.4724 25.823C34.7809 26.168 35.0746 26.531 35.3653 26.9012C35.9409 27.6452 36.4838 28.4287 36.994 29.2446C38.0175 30.8727 38.9194 32.6194 39.7204 34.4344C40.5214 36.2459 41.2185 38.1292 41.8267 40.0556C42.4348 41.982 42.954 43.948 43.3931 45.9427C44.2742 49.9286 44.8438 54.0079 45.179 58.1087C45.5172 62.2132 45.618 66.3356 45.5379 70.4473C45.4608 74.5589 45.1938 78.6598 44.7963 82.7319C44.5916 84.7697 44.3602 86.8004 44.0873 88.8203C43.9538 89.8338 43.8114 90.8437 43.663 91.8501C43.5117 92.8564 43.3545 93.8628 43.1913 94.8655C41.8741 102.895 40.106 110.791 38.0353 118.543C36.015 126.131 34.2143 133.79 32.7695 141.535C32.6775 142.02 32.5856 142.502 32.4995 142.987L32.2444 144.442L32.1169 145.172L32.0516 145.535L31.9923 145.898L31.7549 147.357L31.6333 148.087L31.5235 148.82L31.301 150.279C31.2239 150.768 31.1616 151.257 31.0934 151.746L30.8887 153.208L30.7018 154.678C30.6424 155.167 30.5742 155.656 30.5208 156.145L30.3547 157.615C30.2953 158.107 30.2538 158.596 30.2004 159.088C30.1529 159.577 30.0966 160.07 30.0521 160.562L29.9245 162.036C29.88 162.528 29.8444 163.02 29.8058 163.513C29.7702 164.005 29.7287 164.494 29.699 164.986C29.6397 165.971 29.5744 166.959 29.5329 167.944C29.4795 168.933 29.4528 169.917 29.4202 170.906C29.3697 172.875 29.3638 174.852 29.3964 176.822C29.435 178.795 29.527 180.764 29.6694 182.73C29.8147 184.693 30.0135 186.651 30.2835 188.599C30.5505 190.544 30.8827 192.478 31.2951 194.39L31.4553 195.105L31.5354 195.461L31.6244 195.816L31.7965 196.528L31.9804 197.232L32.0724 197.588C32.102 197.707 32.1376 197.822 32.1703 197.941L32.3661 198.645C32.5085 199.109 32.6419 199.576 32.7932 200.036C32.9356 200.5 33.0929 200.956 33.2501 201.416L33.4963 202.099C33.5764 202.325 33.6654 202.548 33.7485 202.775C34.0956 203.677 34.4664 204.561 34.8669 205.431C35.2704 206.3 35.7006 207.152 36.1723 207.975C36.4066 208.389 36.6529 208.791 36.9109 209.183L37.1067 209.478C37.172 209.575 37.2373 209.672 37.3055 209.765C37.442 209.956 37.5814 210.142 37.7297 210.322C37.0504 209.733 36.4393 209.025 35.8578 208.284C35.2763 207.548 34.7364 206.76 34.2232 205.948C33.7099 205.132 33.2264 204.288 32.7754 203.422C32.3186 202.555 31.8944 201.664 31.4968 200.758C31.2921 200.305 31.1052 199.842 30.9124 199.385L30.6395 198.688C30.592 198.569 30.5475 198.454 30.503 198.336L30.3725 197.987L30.1114 197.279L29.8652 196.568L29.7406 196.212L29.6249 195.852L29.3905 195.134C28.7853 193.207 28.2691 191.238 27.8301 189.246C26.9519 185.257 26.3794 181.178 26.0441 177.077C25.875 175.025 25.7712 172.969 25.7059 170.909C25.6881 169.881 25.6585 168.854 25.6614 167.826C25.6496 166.794 25.6733 165.766 25.6852 164.738C25.7653 160.627 26.0263 156.526 26.4209 152.454L26.5841 150.926C26.6375 150.419 26.6879 149.909 26.7502 149.402L26.9341 147.882L27.0261 147.12L27.1299 146.365L27.3346 144.849L27.3851 144.468L27.5542 143.335L27.7826 141.826C27.8597 141.323 27.9458 140.82 28.0259 140.32C29.343 132.287 31.1082 124.395 33.1789 116.639C35.2081 109.055 37.0088 101.392 38.4595 93.6507C38.6405 92.6803 38.8155 91.7135 38.9846 90.7431C39.1537 89.7727 39.3199 88.7987 39.4771 87.8283C39.7886 85.8803 40.0823 83.9287 40.3404 81.9735C40.8655 78.0667 41.2719 74.1348 41.5359 70.1957C41.6665 68.2261 41.7644 66.253 41.8148 64.2798C41.8712 62.3066 41.8771 60.3335 41.8415 58.3603C41.7614 54.4176 41.4914 50.4785 40.9545 46.5861C40.4146 42.6973 39.6106 38.848 38.4328 35.1533C37.8425 33.3023 37.1572 31.4945 36.3532 29.7549C35.9498 28.8852 35.5166 28.037 35.0509 27.2103C34.8165 26.7934 34.5732 26.3909 34.3181 25.9919C34.1905 25.7942 34.063 25.5966 33.9295 25.4025L33.7277 25.1114L33.5764 24.8957C33.5616 24.8706 33.5408 24.8454 33.5319 24.8167Z" fill="#EBE0C6"/>
</g>
</g>
</g>
</g>
</g>
</g>
<defs>
<filter id="filter0_d_222_4406" x="0" y="0" width="1013" height="243.309" filterUnits="userSpaceOnUse" color-interpolation-filters="sRGB">
<feFlood flood-opacity="0" result="BackgroundImageFix"/>
<feColorMatrix in="SourceAlpha" type="matrix" values="0 0 0 0 0 0 0 0 0 0 0 0 0 0 0 0 0 0 127 0" result="hardAlpha"/>
<feOffset dy="4"/>
<feGaussianBlur stdDeviation="12.5"/>
<feComposite in2="hardAlpha" operator="out"/>
<feColorMatrix type="matrix" values="0 0 0 0 0.305882 0 0 0 0 0.215686 0 0 0 0 0.121569 0 0 0 0.8 0"/>
<feBlend mode="normal" in2="BackgroundImageFix" result="effect1_dropShadow_222_4406"/>
<feBlend mode="normal" in="SourceGraphic" in2="effect1_dropShadow_222_4406" result="shape"/>
</filter>
</defs>
</svg>
