<svg width="1522" height="765" viewBox="0 0 1522 765" fill="none" xmlns="http://www.w3.org/2000/svg">
<path d="M757.664 466.6H866.514V591H836.969V548.082C819.968 579.182 792.807 594.732 755.487 594.732C723.143 594.732 696.086 584.158 674.316 563.01C652.754 541.655 641.972 515.22 641.972 483.705C641.972 452.19 652.754 425.859 674.316 404.711C696.086 383.356 723.143 372.678 755.487 372.678C781.197 372.678 803.796 379.52 823.285 393.204C842.982 406.888 855.733 424.511 861.538 446.074H816.443C810.223 438.195 801.723 431.975 790.941 427.414C780.367 422.853 768.549 420.572 755.487 420.572C734.547 420.572 716.923 426.585 702.617 438.61C688.519 450.635 681.469 465.667 681.469 483.705C681.469 501.743 688.519 516.775 702.617 528.8C716.923 540.825 734.547 546.838 755.487 546.838C771.659 546.838 785.965 543.624 798.405 537.197C810.845 530.77 819.761 522.165 825.151 511.384H757.664V466.6ZM1010.41 432.39H1046.18V591H1010.41V558.967C998.385 582.81 980.036 594.732 955.363 594.732C938.154 594.732 924.159 589.341 913.378 578.56C902.804 567.571 897.517 553.162 897.517 535.331V432.39H932.971V521.647C932.971 529.94 936.392 536.679 943.234 541.862C950.076 546.838 959.199 549.326 970.602 549.326C982.42 549.326 991.957 546.734 999.214 541.551C1006.68 536.368 1010.41 529.526 1010.41 521.025V432.39ZM1099.97 411.553C1091.88 411.553 1085.04 409.169 1079.44 404.4C1074.05 399.424 1071.35 393.411 1071.35 386.362C1071.35 379.313 1074.05 373.404 1079.44 368.635C1085.04 363.866 1091.88 361.482 1099.97 361.482C1108.26 361.482 1115.1 363.866 1120.49 368.635C1126.09 373.404 1128.89 379.313 1128.89 386.362C1128.89 393.619 1126.09 399.631 1120.49 404.4C1115.1 409.169 1108.26 411.553 1099.97 411.553ZM1082.24 591V432.39H1117.69V591H1082.24ZM1279.86 367.08H1315.32V591H1279.86V559.278C1267.01 582.914 1247.73 594.732 1222.02 594.732C1200.25 594.732 1182 586.853 1167.28 571.096C1152.77 555.131 1145.51 535.331 1145.51 511.695C1145.51 488.059 1152.77 468.362 1167.28 452.605C1182 436.64 1200.25 428.658 1222.02 428.658C1247.73 428.658 1267.01 440.476 1279.86 464.112V367.08ZM1196.2 538.752C1205.53 545.801 1217.14 549.326 1231.04 549.326C1244.93 549.326 1256.54 545.801 1265.87 538.752C1275.2 531.495 1279.86 522.476 1279.86 511.695C1279.86 500.914 1275.2 491.998 1265.87 484.949C1256.54 477.692 1244.93 474.064 1231.04 474.064C1217.14 474.064 1205.53 477.692 1196.2 484.949C1187.08 491.998 1182.52 500.914 1182.52 511.695C1182.52 522.476 1187.08 531.495 1196.2 538.752ZM1513.05 512.628C1513.05 517.189 1512.74 521.336 1512.11 525.068H1378.69C1382.01 533.776 1388.02 540.618 1396.73 545.594C1405.65 550.57 1416.33 553.058 1428.77 553.058C1448.46 553.058 1462.56 549.015 1471.06 540.929H1510.25C1504.24 557.101 1493.76 570.163 1478.84 580.115C1464.12 589.86 1447.11 594.732 1427.83 594.732C1403.37 594.732 1382.95 586.853 1366.57 571.096C1350.19 555.131 1342 535.331 1342 511.695C1342 488.059 1350.08 468.362 1366.25 452.605C1382.63 436.64 1403.06 428.658 1427.52 428.658C1451.99 428.658 1472.31 436.64 1488.48 452.605C1504.86 468.362 1513.05 488.37 1513.05 512.628ZM1427.52 470.332C1415.91 470.332 1405.75 472.82 1397.04 477.796C1388.34 482.772 1382.32 489.51 1379.01 498.011H1476.66C1473.55 489.51 1467.54 482.772 1458.62 477.796C1449.71 472.82 1439.34 470.332 1427.52 470.332Z" fill="#FFE974"/>
<path d="M105.576 345.083C78.1797 345.083 55.3495 337.956 37.0853 323.701C18.8211 309.446 9.68894 291.738 9.68894 270.579H52.1198C52.1198 278.152 57.3541 284.499 67.8226 289.622C78.2911 294.745 91.4324 297.307 107.247 297.307C121.279 297.307 133.084 295.302 142.661 291.293C152.239 287.061 157.028 281.604 157.028 274.922C157.028 270.913 155.246 267.349 151.682 264.231C148.118 261.112 142.661 258.44 135.311 256.212C128.184 253.985 121.613 252.314 115.599 251.201C109.808 250.087 102.124 248.751 92.5461 247.191C69.6045 243.628 50.6721 236.055 35.7489 224.473C21.0484 212.89 13.6982 197.299 13.6982 177.698C13.6982 156.539 22.2734 139.388 39.424 126.247C56.5745 113.105 78.0684 106.535 103.906 106.535C130.188 106.535 152.016 113.439 169.389 127.249C186.763 140.836 195.449 157.764 195.449 178.032H153.018C153.018 171.35 148.23 165.782 138.652 161.327C129.075 156.65 117.047 154.311 102.569 154.311C89.2051 154.311 78.1797 156.316 69.4931 160.325C60.8065 164.112 56.4632 169.012 56.4632 175.026C56.4632 187.053 76.5092 195.851 116.601 201.42C141.325 205.206 161.371 212.668 176.74 223.804C192.108 234.941 199.793 250.532 199.793 270.579C199.793 292.629 190.772 310.559 172.73 324.369C154.689 338.178 132.304 345.083 105.576 345.083ZM335.446 218.459H285.999V276.258C285.999 287.395 293.238 292.963 307.715 292.963H332.105V341.074H303.372C266.175 341.074 247.577 323.367 247.577 287.952V218.459H214.501V170.682H247.577V131.258L285.999 120.567V170.682H335.446V218.459ZM486.721 170.682H530.822L443.621 404.553H397.515L426.582 341.074H414.889L351.409 170.682H391.502L436.271 285.613H441.951L486.721 170.682ZM550.873 341.074V100.521H588.961V341.074H550.873ZM801.932 256.88C801.932 261.781 801.598 266.235 800.93 270.244H657.6C661.164 279.599 667.624 286.95 676.978 292.295C686.556 297.641 698.027 300.314 711.391 300.314C732.551 300.314 747.697 295.97 756.829 287.284H798.925C792.466 304.657 781.218 318.689 765.181 329.38C749.367 339.849 731.103 345.083 710.389 345.083C684.106 345.083 662.167 336.619 644.571 319.691C626.975 302.541 618.176 281.27 618.176 255.878C618.176 230.486 626.863 209.327 644.236 192.399C661.832 175.248 683.772 166.673 710.054 166.673C736.337 166.673 758.165 175.248 775.538 192.399C793.134 209.327 801.932 230.82 801.932 256.88ZM710.054 211.443C697.581 211.443 686.667 214.115 677.312 219.461C667.958 224.807 661.498 232.046 657.935 241.178H762.842C759.501 232.046 753.042 224.807 743.465 219.461C733.887 214.115 722.75 211.443 710.054 211.443Z" fill="#FFFCEB"/>
<rect width="302.43" height="312.601" transform="matrix(-1 0 0 1 585.43 452)" fill="#E55937"/>
<rect width="302.43" height="312.601" transform="matrix(-1 0 0 1 1179.43 0)" fill="#BFD6EC"/>
<rect width="205" height="212" transform="matrix(-1 0 0 1 205 452)" fill="#FFFCEB"/>
<rect width="205" height="212" transform="matrix(-1 0 0 1 1522 101)" fill="#FFE974"/>
</svg>
