<svg width="252" height="170" viewBox="0 0 252 170" fill="none" xmlns="http://www.w3.org/2000/svg">
<path d="M0 137.638C0 154.581 10.5627 169.399 29.1192 169.399C60.9564 169.399 79.6734 140.732 79.6734 101.147C79.6734 93.3349 79.3523 86.8191 78.71 81.6111L98.551 134.87C104.629 151.323 105.432 164.518 82.8732 164.518V166.142H135.343V164.518C125.583 164.518 120.468 155.55 113.426 137.638L62.2409 0H60.6353C50.5542 27.0441 44.6364 43.1702 34.8765 69.3852C33.2823 73.624 34.0851 78.0263 38.5579 78.0263C47.6756 78.0263 52.481 60.9193 60.1536 60.9193C62.2409 60.9193 63.9956 62.2272 63.9956 65.3216C63.9956 82.2534 0 97.5737 0 137.638ZM13.6019 134.543C13.6019 94.3158 65.7503 87.473 65.7503 65.6486C65.7503 61.4098 63.5139 59.2962 60.4747 59.2962C51.9993 59.2962 46.0814 76.3915 38.7185 76.3915C36.161 76.3915 34.8765 74.4414 36.9638 68.743L55.3597 18.8935L74.7189 70.8566C77.5976 80.4668 78.0678 89.4231 78.0678 101.474C78.0678 128.191 65.4407 161.576 38.7185 161.576C23.0407 161.576 13.6019 149.852 13.6019 134.543Z" fill="#EBE0C6"/>
<path d="M144.926 133.235C144.926 154.254 159.961 169.399 180.605 169.399C208.6 169.399 219.152 146.104 224.909 118.09V145.94C224.909 158.166 231.63 166.141 240.105 166.141H251.47V164.518C247.147 164.518 239.314 161.576 239.314 147.902C239.314 130.631 239.153 128.191 239.153 113.688C239.153 100.668 237.708 88.2787 226.033 88.2787C223.475 88.2787 221.709 89.5865 221.709 90.5674C224.118 91.2213 224.427 94.9579 224.427 98.5428C224.427 145.94 202.51 164.028 185.238 164.028C169.561 164.028 158.998 151.16 158.998 134.216C158.998 70.5295 239.474 94.3157 239.474 68.089C239.474 55.2208 215.952 47.5607 197.877 47.5607C172.76 47.5607 153.883 55.8748 153.883 72.0008C153.883 78.9954 158.528 85.0207 165.398 85.0207C170.685 85.0207 175.96 80.4667 174.366 75.574C172.921 77.0453 167.967 74.2778 167.967 68.089C167.967 54.5669 182.681 49.1955 197.877 49.1955C210.837 49.1955 225.872 54.5669 225.872 67.762C225.872 94.631 144.926 75.9009 144.926 133.235Z" fill="#EBE0C6"/>
</svg>
