<svg width="348" height="449" viewBox="0 0 348 449" fill="none" xmlns="http://www.w3.org/2000/svg">
<path d="M344.222 218.444C321.472 194.43 291.139 178 259.542 171.68C245.639 167.889 231.736 165.361 217.833 164.097C253.222 122.389 246.903 59.1943 205.194 23.8054C163.486 -11.5834 100.292 -5.264 64.9027 36.4443C29.5138 78.1527 35.8333 141.347 77.5416 176.736C85.125 183.055 92.7083 188.111 100.292 190.639V218.444L80.0694 199.486C62.375 181.792 33.3055 181.792 14.3472 199.486C-3.34726 217.18 -4.61115 244.986 13.0833 262.68L71.2222 330.93C73.75 348.625 80.0694 365.055 88.9166 380.222C95.2361 391.597 104.083 402.972 112.931 411.819V435.833C112.931 443.417 117.986 448.472 125.569 448.472H297.458C303.778 448.472 310.097 442.153 310.097 435.833V402.972C334.111 373.903 346.75 337.25 346.75 300.597V227.292C348.014 222.236 346.75 219.708 344.222 218.444ZM66.1666 99.6388C66.1666 57.9304 100.292 25.0693 142 26.3332C183.708 26.3332 216.569 60.4582 215.306 102.167C215.306 124.917 205.194 145.139 187.5 159.042V95.8471C186.855 84.8939 182.044 74.6024 174.054 67.0824C166.064 59.5625 155.5 55.3837 144.528 55.4027C121.778 54.1388 101.556 73.0971 101.556 95.8471V161.569C80.0694 148.93 67.4305 124.917 66.1666 99.6388ZM322.736 299.333C324 332.194 312.625 363.792 291.139 389.069C288.611 391.597 286.083 394.125 286.083 397.917V424.458H139.472V406.764C139.472 402.972 136.944 399.18 134.417 396.653C125.569 389.069 117.986 380.222 111.667 368.847C104.083 356.208 99.0277 341.042 96.5 325.875C96.5 323.347 95.2361 320.819 93.9722 318.292L33.3055 246.25C29.5138 242.458 26.9861 237.403 26.9861 231.083C26.9861 226.028 29.5138 219.708 33.3055 215.917C42.1527 208.333 54.7916 208.333 63.6388 215.917L100.292 252.569V290.486L124.306 277.847V95.8471C125.569 86.9999 133.153 79.4165 143.264 80.6804C152.111 80.6804 160.958 86.9999 160.958 95.8471V241.194L186.236 246.25V188.111C187.5 186.847 188.764 186.847 190.028 185.583C198.875 185.583 207.722 186.847 216.569 188.111V252.569L236.792 256.361V190.639L251.958 194.43C258.278 195.694 264.597 198.222 270.917 200.75V263.944L291.139 267.736V209.597C302.514 214.653 312.625 222.236 321.472 231.083L322.736 299.333Z" fill="black"/>
</svg>
