<svg width="38" height="39" viewBox="0 0 38 39" fill="none" xmlns="http://www.w3.org/2000/svg">
<path d="M32.3529 38.0811H5.29164C3.89793 38.0811 2.56129 37.5274 1.57578 36.5419C0.590274 35.5564 0.0366211 34.2198 0.0366211 32.826V5.76479C0.0366211 4.37107 0.590274 3.03443 1.57578 2.04893C2.56129 1.06342 3.89793 0.509766 5.29164 0.509766H32.3529C33.7466 0.509766 35.0833 1.06342 36.0688 2.04893C37.0543 3.03443 37.6079 4.37107 37.6079 5.76479V32.826C37.6079 34.2198 37.0543 35.5564 36.0688 36.5419C35.0833 37.5274 33.7466 38.0811 32.3529 38.0811ZM5.29164 2.61177C4.45541 2.61177 3.65343 2.94397 3.06213 3.53527C2.47082 4.12658 2.13863 4.92856 2.13863 5.76479V32.826C2.13863 33.6623 2.47082 34.4643 3.06213 35.0556C3.65343 35.6469 4.45541 35.9791 5.29164 35.9791H32.3529C33.1891 35.9791 33.9911 35.6469 34.5824 35.0556C35.1737 34.4643 35.5059 33.6623 35.5059 32.826V5.76479C35.5059 4.92856 35.1737 4.12658 34.5824 3.53527C33.9911 2.94397 33.1891 2.61177 32.3529 2.61177H5.29164Z" fill="#686868"/>
<path d="M18.3172 29.2872C16.2042 29.2851 14.1393 28.7168 12.3836 27.6541C10.6278 26.5915 9.26005 25.0821 8.45314 23.3169C7.64624 21.5517 7.43642 19.6099 7.85022 17.7369C8.26403 15.864 9.28286 14.1439 10.7779 12.7943C12.273 11.4446 14.1772 10.5259 16.2498 10.1543C18.3225 9.7827 20.4704 9.97489 22.4222 10.7066C24.374 11.4382 26.042 12.6766 27.2154 14.265C28.3887 15.8534 29.0147 17.7206 29.0142 19.6306C29.0105 22.1928 27.8819 24.649 25.8762 26.4596C23.8705 28.2702 21.1518 29.2872 18.3172 29.2872ZM18.3172 12.0633C16.6647 12.0654 15.05 12.5101 13.677 13.3412C12.3039 14.1724 11.2342 15.3527 10.6029 16.7331C9.97161 18.1134 9.80704 19.632 10.13 21.0969C10.4529 22.5617 11.2489 23.9073 12.4174 24.9634C13.5858 26.0196 15.0744 26.7391 16.695 27.031C18.3156 27.323 19.9955 27.1742 21.5226 26.6036C23.0498 26.0329 24.3555 25.066 25.275 23.8249C26.1945 22.5838 26.6865 21.1242 26.6888 19.6306C26.6888 17.6236 25.8068 15.6988 24.2368 14.2797C22.6668 12.8606 20.5374 12.0633 18.3172 12.0633Z" fill="#686868"/>
<path d="M28.9178 10.74C30.2984 10.74 31.4176 9.72834 31.4176 8.48036C31.4176 7.23239 30.2984 6.2207 28.9178 6.2207C27.5371 6.2207 26.4179 7.23239 26.4179 8.48036C26.4179 9.72834 27.5371 10.74 28.9178 10.74Z" fill="#686868"/>
</svg>
